<?xml version="1.0" encoding="UTF-8" standalone="no"?>
<svg
   xmlns:dc="http://purl.org/dc/elements/1.1/"
   xmlns:cc="http://creativecommons.org/ns#"
   xmlns:rdf="http://www.w3.org/1999/02/22-rdf-syntax-ns#"
   xmlns:svg="http://www.w3.org/2000/svg"
   xmlns="http://www.w3.org/2000/svg"
   xmlns:sodipodi="http://sodipodi.sourceforge.net/DTD/sodipodi-0.dtd"
   xmlns:inkscape="http://www.inkscape.org/namespaces/inkscape"
   style="font-style:normal;font-weight:normal;font-size:12px;font-family:Dialog;color-interpolation:auto;fill:#000000;fill-opacity:1;stroke:#000000;stroke-width:1;stroke-linecap:square;stroke-linejoin:miter;stroke-miterlimit:10;stroke-dasharray:none;stroke-dashoffset:0;stroke-opacity:1;color-rendering:auto;image-rendering:auto;shape-rendering:auto;text-rendering:auto"
   width="767.19476"
   height="531.74298"
   id="svg5628"
   version="1.1"
   inkscape:version="0.91 r13725"
   sodipodi:docname="behavior-react-change-1.svg">
  <metadata
     id="metadata7099">
    <rdf:RDF>
      <cc:Work
         rdf:about="">
        <dc:format>image/svg+xml</dc:format>
        <dc:type
           rdf:resource="http://purl.org/dc/dcmitype/StillImage" />
        <dc:title></dc:title>
      </cc:Work>
    </rdf:RDF>
  </metadata>
  <sodipodi:namedview
     pagecolor="#000000"
     bordercolor="#666666"
     borderopacity="1"
     objecttolerance="10"
     gridtolerance="10"
     guidetolerance="10"
     inkscape:pageopacity="0"
     inkscape:pageshadow="2"
     inkscape:window-width="1440"
     inkscape:window-height="877"
     id="namedview7097"
     showgrid="false"
     inkscape:zoom="0.96736136"
     inkscape:cx="399.39558"
     inkscape:cy="197.92884"
     inkscape:window-x="0"
     inkscape:window-y="0"
     inkscape:window-maximized="0"
     inkscape:current-layer="svg5628"
     fit-margin-top="0"
     fit-margin-left="0"
     fit-margin-right="0"
     fit-margin-bottom="0" />
  <!--Generated by the Batik Graphics2D SVG Generator-->
  <defs
     id="genericDefs">
    <marker
       inkscape:stockid="Arrow1Lend"
       orient="auto"
       refY="0"
       refX="0"
       id="Arrow1Lend"
       style="overflow:visible"
       inkscape:isstock="true">
      <path
         id="path9901"
         d="M 0,0 5,-5 -12.5,0 5,5 0,0 Z"
         style="fill:#ffffff;fill-opacity:1;fill-rule:evenodd;stroke:#ffffff;stroke-width:1pt;stroke-opacity:0.26666667"
         transform="matrix(-0.8,0,0,-0.8,-10,0)"
         inkscape:connector-curvature="0" />
    </marker>
    <defs
       id="defs1">
      <clipPath
         id="clipPath1"
         clipPathUnits="userSpaceOnUse">
        <path
           id="path5635"
           d="m 0,0 1440,0 0,749 L 0,749 0,0 Z"
           inkscape:connector-curvature="0" />
      </clipPath>
    </defs>
  </defs>
  <g
     id="g5717"
     style="font-size:8px;font-family:Helvetica;color-interpolation:linearRGB;fill:#4d4d4d;stroke:#4d4d4d;color-rendering:optimizeQuality;image-rendering:optimizeQuality;text-rendering:geometricPrecision"
     transform="translate(-204.75526,220.97501)" />
  <g
     id="g5835"
     style="color-interpolation:linearRGB;fill:#66c2a5;fill-opacity:0.90196078;stroke:#66c2a5;stroke-width:3;stroke-linecap:round;stroke-linejoin:round;stroke-opacity:0.99215686;color-rendering:optimizeQuality;image-rendering:optimizeQuality;text-rendering:geometricPrecision"
     transform="translate(-388.15526,-111.52499)" />
  <g
     id="g5879"
     style="font-size:8px;font-family:Helvetica;color-interpolation:linearRGB;fill:#4d4d4d;stroke:#4d4d4d;color-rendering:optimizeQuality;image-rendering:optimizeQuality;text-rendering:geometricPrecision"
     transform="translate(57.580642,243.47501)">
    <path
       inkscape:connector-curvature="0"
       id="path5881"
       d="m -11.668,-0.0898 1.961,0 0,0.7226 -1.961,0 z m 3.0977,-1.3711 0,-0.5391 q 0.7617,-0.0742 1.0625,-0.248 0.3008,-0.1739 0.4492,-0.8223 l 0.5547,0 0,5.5703 -0.75,0 0,-3.9609 z m 4.6719,2.5351 q 0.0703,0.6016 0.5586,0.832 0.25,0.1172 0.5781,0.1172 0.625,0 0.9258,-0.3984 0.3007,-0.3984 0.3007,-0.8828 0,-0.586 -0.3574,-0.9063 -0.3574,-0.3203 -0.8574,-0.3203 -0.3633,0 -0.623,0.1406 -0.2598,0.1407 -0.4434,0.3907 L -4.4258,0.0117 -4,-3 l 2.9062,0 0,0.6797 -2.3789,0 -0.2382,1.5547 q 0.1953,-0.1485 0.3711,-0.2227 0.3125,-0.1289 0.7226,-0.1289 0.7695,0 1.3047,0.4961 0.5352,0.4961 0.5352,1.2578 0,0.793 -0.4903,1.3985 -0.4902,0.6054 -1.5644,0.6054 -0.6836,0 -1.209,-0.3847 -0.5254,-0.3848 -0.5879,-1.1817 z"
       style="fill:#ffffff;stroke:none" />
  </g>
  <g
     id="g5883"
     style="font-size:8px;font-family:Helvetica;color-interpolation:linearRGB;fill:#4d4d4d;stroke:#4d4d4d;color-rendering:optimizeQuality;image-rendering:optimizeQuality;text-rendering:geometricPrecision"
     transform="translate(57.580642,200.92971)">
    <path
       inkscape:connector-curvature="0"
       id="path5885"
       d="m -11.668,-0.0898 1.961,0 0,0.7226 -1.961,0 z m 3.0977,-1.3711 0,-0.5391 q 0.7617,-0.0742 1.0625,-0.248 0.3008,-0.1739 0.4492,-0.8223 l 0.5547,0 0,5.5703 -0.75,0 0,-3.9609 z m 7.418,-0.7383 q 0.375,0.6914 0.375,1.8945 0,1.1406 -0.3399,1.8867 -0.4922,1.0703 -1.6094,1.0703 -1.0078,0 -1.5,-0.875 -0.4101,-0.7304 -0.4101,-1.9609 0,-0.9531 0.2461,-1.6367 0.4609,-1.2735 1.6679,-1.2735 1.086,0 1.5704,0.8946 z m -0.7071,3.7265 q 0.3242,-0.4843 0.3242,-1.8046 0,-0.9532 -0.2343,-1.5684 -0.2344,-0.6152 -0.9102,-0.6152 -0.6211,0 -0.9082,0.5839 -0.2871,0.584 -0.2871,1.7208 0,0.8554 0.1836,1.375 0.2812,0.7929 0.9609,0.7929 0.5469,0 0.8711,-0.4844 z"
       style="fill:#ffffff;stroke:none" />
  </g>
  <g
     id="g5887"
     style="font-size:8px;font-family:Helvetica;color-interpolation:linearRGB;fill:#4d4d4d;stroke:#4d4d4d;color-rendering:optimizeQuality;image-rendering:optimizeQuality;text-rendering:geometricPrecision"
     transform="translate(60.029942,160.68521)">
    <path
       inkscape:connector-curvature="0"
       id="path5889"
       d="m -9.668,-0.0898 1.961,0 0,0.7226 -1.961,0 z m 3.3203,1.164 q 0.0704,0.6016 0.5586,0.832 0.25,0.1172 0.5782,0.1172 0.625,0 0.9257,-0.3984 0.3008,-0.3984 0.3008,-0.8828 0,-0.586 -0.3574,-0.9063 -0.3574,-0.3203 -0.8574,-0.3203 -0.3633,0 -0.6231,0.1406 -0.2597,0.1407 -0.4433,0.3907 L -6.875,0.0117 -6.4492,-3 l 2.9062,0 0,0.6797 -2.3789,0 -0.2383,1.5547 q 0.1954,-0.1485 0.3711,-0.2227 0.3125,-0.1289 0.7227,-0.1289 0.7695,0 1.3047,0.4961 0.5351,0.4961 0.5351,1.2578 0,0.793 -0.4902,1.3985 -0.4902,0.6054 -1.5644,0.6054 -0.6836,0 -1.209,-0.3847 -0.5254,-0.3848 -0.5879,-1.1817 z"
       style="fill:#ffffff;stroke:none" />
  </g>
  <g
     id="g5891"
     style="font-size:8px;font-family:Helvetica;color-interpolation:linearRGB;fill:#4d4d4d;stroke:#4d4d4d;color-rendering:optimizeQuality;image-rendering:optimizeQuality;text-rendering:geometricPrecision"
     transform="translate(61.693942,122.50551)">
    <path
       inkscape:connector-curvature="0"
       id="path5893"
       d="m -5.2656,-2.1992 q 0.375,0.6914 0.375,1.8945 0,1.1406 -0.3399,1.8867 -0.4922,1.0703 -1.6093,1.0703 -1.0079,0 -1.5,-0.875 Q -8.75,1.0469 -8.75,-0.1836 q 0,-0.9531 0.2461,-1.6367 0.4609,-1.2735 1.668,-1.2735 1.0859,0 1.5703,0.8946 z m -0.7071,3.7265 q 0.3243,-0.4843 0.3243,-1.8046 0,-0.9532 -0.2344,-1.5684 -0.2344,-0.6152 -0.9102,-0.6152 -0.6211,0 -0.9082,0.5839 -0.2871,0.584 -0.2871,1.7208 0,0.8554 0.1836,1.375 0.2813,0.7929 0.9609,0.7929 0.5469,0 0.8711,-0.4844 z"
       style="fill:#ffffff;stroke:none" />
  </g>
  <g
     id="g5895"
     style="font-size:8px;font-family:Helvetica;color-interpolation:linearRGB;fill:#4d4d4d;stroke:#4d4d4d;color-rendering:optimizeQuality;image-rendering:optimizeQuality;text-rendering:geometricPrecision"
     transform="translate(61.693942,86.189011)">
    <path
       inkscape:connector-curvature="0"
       id="path5897"
       d="m -8.0117,1.0742 q 0.0703,0.6016 0.5586,0.832 0.25,0.1172 0.5781,0.1172 0.625,0 0.9258,-0.3984 0.3008,-0.3984 0.3008,-0.8828 0,-0.586 -0.3575,-0.9063 -0.3574,-0.3203 -0.8574,-0.3203 -0.3633,0 -0.623,0.1406 -0.2598,0.1407 -0.4434,0.3907 L -8.5391,0.0117 -8.1133,-3 l 2.9063,0 0,0.6797 -2.3789,0 -0.2383,1.5547 q 0.1953,-0.1485 0.3711,-0.2227 0.3125,-0.1289 0.7226,-0.1289 0.7696,0 1.3047,0.4961 0.5352,0.4961 0.5352,1.2578 0,0.793 -0.4903,1.3985 -0.4902,0.6054 -1.5644,0.6054 -0.6836,0 -1.209,-0.3847 -0.5254,-0.3848 -0.5879,-1.1817 z"
       style="fill:#ffffff;stroke:none" />
  </g>
  <g
     id="g5899"
     style="font-size:8px;font-family:Helvetica;color-interpolation:linearRGB;fill:#4d4d4d;stroke:#4d4d4d;color-rendering:optimizeQuality;image-rendering:optimizeQuality;text-rendering:geometricPrecision"
     transform="translate(60.244742,51.562312)">
    <path
       inkscape:connector-curvature="0"
       id="path5901"
       d="m -11.2344,-1.4609 0,-0.5391 q 0.7617,-0.0742 1.0625,-0.248 0.3008,-0.1739 0.4492,-0.8223 l 0.5547,0 0,5.5703 -0.75,0 0,-3.9609 z m 7.418,-0.7383 q 0.375,0.6914 0.375,1.8945 0,1.1406 -0.3398,1.8867 -0.4922,1.0703 -1.6094,1.0703 -1.0078,0 -1.5,-0.875 -0.4102,-0.7304 -0.4102,-1.9609 0,-0.9531 0.2461,-1.6367 0.4609,-1.2735 1.668,-1.2735 1.0859,0 1.5703,0.8946 z m -0.707,3.7265 q 0.3242,-0.4843 0.3242,-1.8046 0,-0.9532 -0.2344,-1.5684 -0.2344,-0.6152 -0.9102,-0.6152 -0.621,0 -0.9082,0.5839 -0.2871,0.584 -0.2871,1.7208 0,0.8554 0.1836,1.375 0.2813,0.7929 0.961,0.7929 0.5468,0 0.8711,-0.4844 z"
       style="fill:#ffffff;stroke:none" />
  </g>
  <g
     id="g5903"
     style="font-size:8px;font-family:Helvetica;color-interpolation:linearRGB;fill:#4d4d4d;stroke:#4d4d4d;color-rendering:optimizeQuality;image-rendering:optimizeQuality;text-rendering:geometricPrecision"
     transform="translate(60.244742,18.475012)">
    <path
       inkscape:connector-curvature="0"
       id="path5905"
       d="m -11.2344,-1.4609 0,-0.5391 q 0.7617,-0.0742 1.0625,-0.248 0.3008,-0.1739 0.4492,-0.8223 l 0.5547,0 0,5.5703 -0.75,0 0,-3.9609 z m 4.6719,2.5351 q 0.0703,0.6016 0.5586,0.832 0.25,0.1172 0.5781,0.1172 0.625,0 0.9258,-0.3984 0.3008,-0.3984 0.3008,-0.8828 0,-0.586 -0.3574,-0.9063 -0.3575,-0.3203 -0.8575,-0.3203 -0.3632,0 -0.623,0.1406 -0.2598,0.1407 -0.4434,0.3907 L -7.0898,0.0117 -6.6641,-3 l 2.9063,0 0,0.6797 -2.3789,0 -0.2383,1.5547 q 0.1953,-0.1485 0.3711,-0.2227 0.3125,-0.1289 0.7227,-0.1289 0.7695,0 1.3046,0.4961 0.5352,0.4961 0.5352,1.2578 0,0.793 -0.4902,1.3985 -0.4903,0.6054 -1.5645,0.6054 -0.6836,0 -1.209,-0.3847 Q -7.2305,1.8711 -7.293,1.0742 Z"
       style="fill:#ffffff;stroke:none" />
  </g>
  <text
     sodipodi:linespacing="125%"
     id="text9866"
     y="105.16777"
     x="22.736206"
     style="font-style:normal;font-variant:normal;font-weight:normal;font-stretch:normal;font-size:11.25px;line-height:125%;font-family:sans-serif;-inkscape-font-specification:'sans-serif, Normal';text-align:center;letter-spacing:0px;word-spacing:0px;writing-mode:lr-tb;text-anchor:middle;fill:#ffffff;fill-opacity:1;stroke:none;stroke-width:1px;stroke-linecap:butt;stroke-linejoin:miter;stroke-opacity:1"
     xml:space="preserve"><tspan
       style="font-style:normal;font-variant:normal;font-weight:normal;font-stretch:normal;font-size:11.25px;line-height:125%;font-family:sans-serif;-inkscape-font-specification:'sans-serif, Normal';text-align:center;writing-mode:lr-tb;text-anchor:middle"
       y="105.16777"
       x="22.736206"
       id="tspan9868"
       sodipodi:role="line">Change</tspan><tspan
       style="font-style:normal;font-variant:normal;font-weight:normal;font-stretch:normal;font-size:11.25px;line-height:125%;font-family:sans-serif;-inkscape-font-specification:'sans-serif, Normal';text-align:center;writing-mode:lr-tb;text-anchor:middle"
       id="tspan9870"
       y="119.23027"
       x="22.736206"
       sodipodi:role="line">from</tspan><tspan
       style="font-style:normal;font-variant:normal;font-weight:normal;font-stretch:normal;font-size:11.25px;line-height:125%;font-family:sans-serif;-inkscape-font-specification:'sans-serif, Normal';text-align:center;writing-mode:lr-tb;text-anchor:middle"
       id="tspan9872"
       y="133.29277"
       x="22.736206"
       sodipodi:role="line">Baseline</tspan><tspan
       style="font-style:normal;font-variant:normal;font-weight:normal;font-stretch:normal;font-size:11.25px;line-height:125%;font-family:sans-serif;-inkscape-font-specification:'sans-serif, Normal';text-align:center;writing-mode:lr-tb;text-anchor:middle"
       id="tspan9874"
       y="147.35527"
       x="22.736206"
       sodipodi:role="line">(%)</tspan></text>
  <text
     sodipodi:linespacing="125%"
     id="text9876"
     y="179.03145"
     x="86.374863"
     style="font-style:normal;font-weight:normal;font-size:16.25px;line-height:125%;font-family:sans-serif;letter-spacing:0px;word-spacing:0px;fill:#65c2a5;fill-opacity:1;stroke:none;stroke-width:1px;stroke-linecap:butt;stroke-linejoin:miter;stroke-opacity:1"
     xml:space="preserve"><tspan
       style="font-size:11.25px;fill:#65c2a5;fill-opacity:1"
       y="179.03145"
       x="86.374863"
       id="tspan9878"
       sodipodi:role="line">Monkey CC</tspan></text>
  <text
     xml:space="preserve"
     style="font-style:normal;font-weight:normal;font-size:16.25px;line-height:125%;font-family:sans-serif;letter-spacing:0px;word-spacing:0px;fill:#7470b4;fill-opacity:0.98039216;stroke:none;stroke-width:1px;stroke-linecap:butt;stroke-linejoin:miter;stroke-opacity:1"
     x="86.374863"
     y="199.03145"
     id="text9880"
     sodipodi:linespacing="125%"><tspan
       sodipodi:role="line"
       id="tspan9882"
       x="86.374863"
       y="199.03145"
       style="font-size:11.25px;fill:#7470b4;fill-opacity:0.98039216">Monkey ISA</tspan></text>
  <g
     id="g6113"
     style="font-weight:bold;font-size:9px;font-family:Helvetica;color-interpolation:linearRGB;fill:#ffffff;color-rendering:optimizeQuality;image-rendering:optimizeQuality;text-rendering:geometricPrecision"
     transform="translate(433.34564,16.275012)" />
  <g
     inkscape:groupmode="layer"
     id="layer1"
     inkscape:label="Ref Line"
     style="display:inline"
     transform="translate(-388.15526,-121.52499)" />
  <g
     id="g8714"
     transform="translate(31.613442,-265.7046)">
    <g
       transform="translate(-158.7687,-165.82039)"
       style="font-style:normal;font-weight:normal;font-size:12px;font-family:Dialog;display:inline;color-interpolation:linearRGB;fill:#ffffff;fill-opacity:1;stroke:#ffffff;stroke-width:0.69999999;stroke-linecap:square;stroke-linejoin:round;stroke-miterlimit:10;stroke-dasharray:none;stroke-dashoffset:0;stroke-opacity:1;color-rendering:optimizeQuality;image-rendering:optimizeQuality;shape-rendering:auto;text-rendering:geometricPrecision"
       id="g6455">
      <line
         y2="675"
         style="fill:#ffffff;stroke:#ffffff"
         x1="187"
         x2="413"
         y1="675"
         id="line6457" />
      <line
         y2="670.47998"
         style="fill:#ffffff;stroke:#ffffff"
         x1="209.60001"
         x2="209.60001"
         y1="675"
         id="line6459" />
      <line
         y2="670.47998"
         style="fill:#ffffff;stroke:#ffffff"
         x1="254.8"
         x2="254.8"
         y1="675"
         id="line6461" />
      <line
         y2="670.47998"
         style="fill:#ffffff;stroke:#ffffff"
         x1="300"
         x2="300"
         y1="675"
         id="line6463" />
      <line
         y2="670.47998"
         style="fill:#ffffff;stroke:#ffffff"
         x1="345.20001"
         x2="345.20001"
         y1="675"
         id="line6465" />
      <line
         y2="670.47998"
         style="fill:#ffffff;stroke:#ffffff"
         x1="390.39999"
         x2="390.39999"
         y1="675"
         id="line6467" />
    </g>
    <g
       transform="translate(50.8313,512.77961)"
       style="font-style:normal;font-weight:normal;font-size:8px;font-family:Helvetica;display:inline;color-interpolation:linearRGB;fill:#4d4d4d;fill-opacity:1;stroke:#4d4d4d;stroke-width:1;stroke-linecap:square;stroke-linejoin:miter;stroke-miterlimit:10;stroke-dasharray:none;stroke-dashoffset:0;stroke-opacity:1;color-rendering:optimizeQuality;image-rendering:optimizeQuality;shape-rendering:auto;text-rendering:geometricPrecision"
       id="g6469">
      <text
         sodipodi:linespacing="125%"
         id="text9977"
         y="5.778357"
         x="-0.43902016"
         style="font-style:normal;font-weight:normal;font-size:16.25px;line-height:125%;font-family:sans-serif;letter-spacing:0px;word-spacing:0px;fill:#000000;fill-opacity:1;stroke:none;stroke-width:1px;stroke-linecap:butt;stroke-linejoin:miter;stroke-opacity:1"
         xml:space="preserve"><tspan
           id="tspan9992"
           style="font-size:7.5px;text-align:center;text-anchor:middle;fill:#ffffff"
           y="5.778357"
           x="-0.43902016"
           sodipodi:role="line">Error in</tspan><tspan
           id="tspan9996"
           style="font-size:7.5px;text-align:center;text-anchor:middle;fill:#ffffff"
           y="15.153357"
           x="-0.43902016"
           sodipodi:role="line">Previous</tspan><tspan
           id="tspan9998"
           style="font-size:7.5px;text-align:center;text-anchor:middle;fill:#ffffff"
           y="24.528357"
           x="-0.43902016"
           sodipodi:role="line">Trial</tspan></text>
      <text
         xml:space="preserve"
         style="font-style:normal;font-weight:normal;font-size:16.25px;line-height:125%;font-family:sans-serif;letter-spacing:0px;word-spacing:0px;fill:#000000;fill-opacity:1;stroke:none;stroke-width:1px;stroke-linecap:butt;stroke-linejoin:miter;stroke-opacity:1"
         x="45.560982"
         y="5.778357"
         id="text10002"
         sodipodi:linespacing="125%"><tspan
           sodipodi:role="line"
           x="45.560982"
           y="5.778357"
           style="font-size:7.5px;text-align:center;text-anchor:middle;fill:#ffffff"
           id="tspan10004">Error</tspan><tspan
           sodipodi:role="line"
           x="45.560982"
           y="15.153357"
           style="font-size:7.5px;text-align:center;text-anchor:middle;fill:#ffffff"
           id="tspan10006">Two Trials</tspan><tspan
           sodipodi:role="line"
           x="45.560982"
           y="24.528357"
           style="font-size:7.5px;text-align:center;text-anchor:middle;fill:#ffffff"
           id="tspan10008">Ago</tspan></text>
      <text
         sodipodi:linespacing="125%"
         id="text10010"
         y="5.778357"
         x="89.560982"
         style="font-style:normal;font-weight:normal;font-size:16.25px;line-height:125%;font-family:sans-serif;letter-spacing:0px;word-spacing:0px;fill:#000000;fill-opacity:1;stroke:none;stroke-width:1px;stroke-linecap:butt;stroke-linejoin:miter;stroke-opacity:1"
         xml:space="preserve"><tspan
           id="tspan10016"
           style="font-size:7.5px;text-align:center;text-anchor:middle;fill:#ffffff"
           y="5.778357"
           x="89.560982"
           sodipodi:role="line">Error</tspan><tspan
           id="tspan10039"
           style="font-size:7.5px;text-align:center;text-anchor:middle;fill:#ffffff"
           y="15.153357"
           x="89.560982"
           sodipodi:role="line">Three Trials</tspan><tspan
           id="tspan10041"
           style="font-size:7.5px;text-align:center;text-anchor:middle;fill:#ffffff"
           y="24.528357"
           x="89.560982"
           sodipodi:role="line">Ago</tspan></text>
      <text
         xml:space="preserve"
         style="font-style:normal;font-weight:normal;font-size:16.25px;line-height:125%;font-family:sans-serif;letter-spacing:0px;word-spacing:0px;fill:#000000;fill-opacity:1;stroke:none;stroke-width:1px;stroke-linecap:butt;stroke-linejoin:miter;stroke-opacity:1"
         x="135.56097"
         y="5.778357"
         id="text10018"
         sodipodi:linespacing="125%"><tspan
           sodipodi:role="line"
           x="135.56097"
           y="5.778357"
           style="font-size:7.5px;text-align:center;text-anchor:middle;fill:#ffffff"
           id="tspan10024">Error</tspan><tspan
           id="tspan10048"
           sodipodi:role="line"
           x="135.56097"
           y="15.153357"
           style="font-size:7.5px;text-align:center;text-anchor:middle;fill:#ffffff">Four Trials</tspan><tspan
           id="tspan10052"
           sodipodi:role="line"
           x="135.56097"
           y="24.528357"
           style="font-size:7.5px;text-align:center;text-anchor:middle;fill:#ffffff">Ago</tspan></text>
      <text
         sodipodi:linespacing="125%"
         id="text10026"
         y="5.778357"
         x="181.56097"
         style="font-style:normal;font-weight:normal;font-size:16.25px;line-height:125%;font-family:sans-serif;letter-spacing:0px;word-spacing:0px;fill:#000000;fill-opacity:1;stroke:none;stroke-width:1px;stroke-linecap:butt;stroke-linejoin:miter;stroke-opacity:1"
         xml:space="preserve"><tspan
           id="tspan10032"
           style="font-size:7.5px;text-align:center;text-anchor:middle;fill:#ffffff"
           y="5.778357"
           x="181.56097"
           sodipodi:role="line">Error</tspan><tspan
           id="tspan10061"
           style="font-size:7.5px;text-align:center;text-anchor:middle;fill:#ffffff"
           y="15.153357"
           x="181.56097"
           sodipodi:role="line">Five Trials</tspan><tspan
           id="tspan10063"
           style="font-size:7.5px;text-align:center;text-anchor:middle;fill:#ffffff"
           y="24.528357"
           x="181.56097"
           sodipodi:role="line">Ago</tspan></text>
    </g>
    <g
       transform="translate(-158.7687,-165.82039)"
       style="font-style:normal;font-weight:normal;font-size:12px;font-family:Dialog;display:inline;color-interpolation:linearRGB;fill:#ffffff;fill-opacity:1;stroke:#ffffff;stroke-width:0.69999999;stroke-linecap:square;stroke-linejoin:round;stroke-miterlimit:10;stroke-dasharray:none;stroke-dashoffset:0;stroke-opacity:1;color-rendering:optimizeQuality;image-rendering:optimizeQuality;shape-rendering:auto;text-rendering:geometricPrecision"
       id="g6489">
      <line
         y2="450"
         style="fill:#ffffff;stroke:#ffffff"
         x1="187"
         x2="187"
         y1="675"
         id="line6491" />
      <line
         y2="675"
         style="fill:#ffffff;stroke:#ffffff"
         x1="187"
         x2="191.52"
         y1="675"
         id="line6493" />
      <line
         y2="632.45471"
         style="fill:#ffffff;stroke:#ffffff"
         x1="187"
         x2="191.52"
         y1="632.45471"
         id="line6495" />
      <line
         y2="592.21021"
         style="fill:#ffffff;stroke:#ffffff"
         x1="187"
         x2="191.52"
         y1="592.21021"
         id="line6497" />
      <line
         y2="554.03052"
         style="fill:#ffffff;stroke:#ffffff"
         x1="187"
         x2="191.52"
         y1="554.03052"
         id="line6499" />
      <line
         y2="517.71399"
         style="fill:#ffffff;stroke:#ffffff"
         x1="187"
         x2="191.52"
         y1="517.71399"
         id="line6501" />
      <line
         y2="483.08719"
         style="fill:#ffffff;stroke:#ffffff"
         x1="187"
         x2="191.52"
         y1="483.08719"
         id="line6503" />
      <line
         y2="450"
         style="fill:#ffffff;stroke:#ffffff"
         x1="187"
         x2="191.52"
         y1="450"
         id="line6505" />
    </g>
    <g
       transform="translate(-158.7687,-165.82039)"
       style="font-style:normal;font-weight:normal;font-size:12px;font-family:Dialog;display:inline;color-interpolation:linearRGB;fill:#66c2a5;fill-opacity:0.4;stroke:#66c2a5;stroke-width:0.69999999;stroke-linecap:square;stroke-linejoin:miter;stroke-miterlimit:10;stroke-dasharray:none;stroke-dashoffset:0;stroke-opacity:0.4;color-rendering:optimizeQuality;image-rendering:optimizeQuality;shape-rendering:auto;text-rendering:geometricPrecision"
       id="g6543">
      <path
         d="m 209.6,603.4843 45.2,-3.758 45.2,-132.5218 45.2,-1.3965 45.2,63.5157"
         style="fill:none;fill-rule:evenodd"
         id="path6545"
         inkscape:connector-curvature="0" />
      <path
         d="m 209.6,586.701 45.2,-42.6592 45.2,26.7523 45.2,-41.7768 45.2,7.7147"
         style="fill:none;fill-rule:evenodd"
         id="path6547"
         inkscape:connector-curvature="0" />
      <path
         d="m 209.6,540.7623 45.2,20.8994 45.2,-9.8587 45.2,1.1119 45.2,-24.2403"
         style="fill:none;fill-rule:evenodd"
         id="path6549"
         inkscape:connector-curvature="0" />
      <path
         d="m 209.6,560.7256 45.2,-8.5704 45.2,-1.7724 45.2,10.8445 45.2,-11.4222"
         style="fill:none;fill-rule:evenodd"
         id="path6551"
         inkscape:connector-curvature="0" />
      <path
         d="m 209.6,493.0397 45.2,32.8773 45.2,17.6842 45.2,42.2165 45.2,-41.0838"
         style="fill:none;fill-rule:evenodd"
         id="path6553"
         inkscape:connector-curvature="0" />
      <path
         d="m 209.6,572.7411 45.2,12.8141 45.2,-18.3851 45.2,11.9034 45.2,-12.0471"
         style="fill:none;fill-rule:evenodd"
         id="path6555"
         inkscape:connector-curvature="0" />
      <path
         d="m 209.6,563.0695 45.2,-3.7588 45.2,-0.7925 45.2,20.4716 45.2,-11.6331"
         style="fill:none;fill-rule:evenodd"
         id="path6557"
         inkscape:connector-curvature="0" />
      <path
         d="m 209.6,553.2371 45.2,9.3021 45.2,-11.5012 45.2,-6.391 45.2,20.3899"
         style="fill:none;fill-rule:evenodd"
         id="path6559"
         inkscape:connector-curvature="0" />
      <path
         d="m 209.6,546.4496 45.2,2.946 45.2,-29.3236 45.2,43.8874 45.2,-11.1301"
         style="fill:none;fill-rule:evenodd"
         id="path6561"
         inkscape:connector-curvature="0" />
      <path
         d="m 209.6,602.8986 45.2,-67.5242 45.2,-2.689 45.2,23.6279 45.2,-5.6793"
         style="fill:none;fill-rule:evenodd"
         id="path6563"
         inkscape:connector-curvature="0" />
      <path
         d="m 209.6,567.3065 45.2,-26.4545 45.2,34.8962 45.2,-15.4487 45.2,-8.1912"
         style="fill:none;fill-rule:evenodd"
         id="path6565"
         inkscape:connector-curvature="0" />
    </g>
    <g
       transform="translate(-158.7687,-165.82039)"
       style="font-style:normal;font-weight:normal;font-size:12px;font-family:Dialog;display:inline;color-interpolation:linearRGB;fill:#66c2a5;fill-opacity:1;stroke:#66c2a5;stroke-width:4;stroke-linecap:butt;stroke-linejoin:round;stroke-miterlimit:10;stroke-dasharray:none;stroke-dashoffset:0;stroke-opacity:1;color-rendering:optimizeQuality;image-rendering:optimizeQuality;shape-rendering:auto;text-rendering:geometricPrecision"
       id="g6567">
      <path
         d="m 209.6,565.1085 45.2,-10.9361 45.2,-5.7796 45.2,5.5994 45.2,-3.2266"
         style="fill:none;fill-rule:evenodd"
         id="path6569"
         inkscape:connector-curvature="0" />
      <circle
         r="3.3333001"
         style="stroke:none"
         cx="0"
         transform="translate(209.6,565.1085)"
         cy="0"
         id="circle6571" />
    </g>
    <g
       transform="translate(96.0313,388.35201)"
       style="font-style:normal;font-weight:normal;font-size:12px;font-family:Dialog;display:inline;color-interpolation:linearRGB;fill:#66c2a5;fill-opacity:1;stroke:#66c2a5;stroke-width:4;stroke-linecap:butt;stroke-linejoin:round;stroke-miterlimit:10;stroke-dasharray:none;stroke-dashoffset:0;stroke-opacity:1;color-rendering:optimizeQuality;image-rendering:optimizeQuality;shape-rendering:auto;text-rendering:geometricPrecision"
       id="g6573">
      <circle
         r="3.3333001"
         style="stroke:none"
         cx="0"
         cy="0"
         id="circle6575" />
    </g>
    <g
       transform="translate(141.2313,382.57241)"
       style="font-style:normal;font-weight:normal;font-size:12px;font-family:Dialog;display:inline;color-interpolation:linearRGB;fill:#66c2a5;fill-opacity:1;stroke:#66c2a5;stroke-width:4;stroke-linecap:butt;stroke-linejoin:round;stroke-miterlimit:10;stroke-dasharray:none;stroke-dashoffset:0;stroke-opacity:1;color-rendering:optimizeQuality;image-rendering:optimizeQuality;shape-rendering:auto;text-rendering:geometricPrecision"
       id="g6577">
      <circle
         r="3.3333001"
         style="stroke:none"
         cx="0"
         cy="0"
         id="circle6579" />
    </g>
    <g
       transform="translate(186.4313,388.17181)"
       style="font-style:normal;font-weight:normal;font-size:12px;font-family:Dialog;display:inline;color-interpolation:linearRGB;fill:#66c2a5;fill-opacity:1;stroke:#66c2a5;stroke-width:4;stroke-linecap:butt;stroke-linejoin:round;stroke-miterlimit:10;stroke-dasharray:none;stroke-dashoffset:0;stroke-opacity:1;color-rendering:optimizeQuality;image-rendering:optimizeQuality;shape-rendering:auto;text-rendering:geometricPrecision"
       id="g6581">
      <circle
         r="3.3333001"
         style="stroke:none"
         cx="0"
         cy="0"
         id="circle6583" />
    </g>
    <g
       transform="translate(231.6313,384.94521)"
       style="font-style:normal;font-weight:normal;font-size:12px;font-family:Dialog;display:inline;color-interpolation:linearRGB;fill:#66c2a5;fill-opacity:1;stroke:#66c2a5;stroke-width:4;stroke-linecap:butt;stroke-linejoin:round;stroke-miterlimit:10;stroke-dasharray:none;stroke-dashoffset:0;stroke-opacity:1;color-rendering:optimizeQuality;image-rendering:optimizeQuality;shape-rendering:auto;text-rendering:geometricPrecision"
       id="g6585">
      <circle
         r="3.3333001"
         style="stroke:none"
         cx="0"
         cy="0"
         id="circle6587" />
    </g>
    <g
       transform="translate(30.2313,491.17961)"
       style="font-style:normal;font-weight:normal;font-size:8px;font-family:Helvetica;display:inline;color-interpolation:linearRGB;fill:#ffffff;fill-opacity:1;stroke:#999999;stroke-width:1;stroke-linecap:square;stroke-linejoin:miter;stroke-miterlimit:10;stroke-dasharray:none;stroke-dashoffset:0;stroke-opacity:1;color-rendering:optimizeQuality;image-rendering:optimizeQuality;shape-rendering:auto;text-rendering:geometricPrecision"
       id="g6589">
      <path
         style="fill:#ffffff;stroke:none"
         d="m 0.6836,-5.7383 3.9805,0 0,0.7031 -3.2032,0 0,1.7422 2.8164,0 0,0.6836 -2.8164,0 0,2.6094 -0.7773,0 z m 5.4805,5.1055 q 0.2226,0.1758 0.5273,0.1758 0.3711,0 0.7188,-0.1719 0.5859,-0.2852 0.5859,-0.9336 l 0,-0.5664 q -0.1289,0.082 -0.332,0.1367 -0.2032,0.0547 -0.3985,0.0781 l -0.4258,0.0547 q -0.3828,0.0508 -0.5742,0.1602 -0.3242,0.1836 -0.3242,0.5859 0,0.3047 0.2227,0.4805 z m 1.4804,-1.9024 q 0.2422,-0.0312 0.3243,-0.2031 0.0468,-0.0937 0.0468,-0.2695 0,-0.3594 -0.2558,-0.5215 -0.2559,-0.1621 -0.7325,-0.1621 -0.5507,0 -0.7812,0.2969 -0.1289,0.164 -0.168,0.4883 l -0.6562,0 q 0.0195,-0.7735 0.5019,-1.0762 0.4824,-0.3028 1.1192,-0.3028 0.7382,0 1.1992,0.2813 0.457,0.2812 0.457,0.875 l 0,2.4101 q 0,0.1094 0.0449,0.1758 0.045,0.0664 0.1895,0.0664 0.0469,0 0.1055,-0.0058 0.0586,-0.0059 0.125,-0.0176 l 0,0.5195 Q 9,0.0664 8.9141,0.0781 8.8281,0.0898 8.6797,0.0898 8.3164,0.0898 8.1523,-0.168 8.0664,-0.3047 8.0312,-0.5547 7.8164,-0.2734 7.4141,-0.0664 7.0117,0.1406 6.5273,0.1406 5.9453,0.1406 5.5762,-0.2129 5.207,-0.5664 5.207,-1.0977 5.207,-1.6797 5.5703,-2 5.9336,-2.3203 6.5234,-2.3945 Z m 2.625,1.2227 q 0.0313,0.3516 0.1758,0.5391 0.2656,0.3398 0.9219,0.3398 0.3906,0 0.6875,-0.1699 0.2969,-0.1699 0.2969,-0.5254 0,-0.2695 -0.2383,-0.4102 -0.1524,-0.0859 -0.6016,-0.1992 l -0.5586,-0.1406 q -0.5351,-0.1328 -0.789,-0.2969 -0.4532,-0.2851 -0.4532,-0.789 0,-0.5938 0.4278,-0.961 0.4277,-0.3672 1.1504,-0.3672 0.9453,0 1.3632,0.5547 0.2618,0.3516 0.2539,0.7578 l -0.664,0 q -0.0195,-0.2383 -0.168,-0.4336 -0.2422,-0.2773 -0.8398,-0.2773 -0.3985,0 -0.6035,0.1523 -0.2051,0.1524 -0.2051,0.4024 0,0.2734 0.2695,0.4375 0.1563,0.0976 0.4609,0.1719 l 0.4649,0.1132 q 0.7578,0.1836 1.0156,0.3555 0.4102,0.2695 0.4102,0.8477 0,0.5586 -0.4239,0.9648 -0.4238,0.4063 -1.291,0.4063 -0.9336,0 -1.3222,-0.4239 -0.3887,-0.4238 -0.416,-1.0488 z m 3.7227,-4.0391 0.7109,0 0,1.168 0.668,0 0,0.5742 -0.668,0 0,2.7305 q 0,0.2187 0.1485,0.293 0.082,0.0429 0.2734,0.0429 0.0508,0 0.1094,-0.0019 0.0586,-0.002 0.1367,-0.0098 l 0,0.5547 q -0.1211,0.0352 -0.252,0.0508 -0.1308,0.0156 -0.2832,0.0156 -0.4921,0 -0.6679,-0.2519 -0.1758,-0.252 -0.1758,-0.6543 l 0,-2.7696 -0.5664,0 0,-0.5742 0.5664,0 z m 4.6875,1.2832 q 0.418,0.209 0.6367,0.5411 0.2109,0.3164 0.2813,0.7382 0.0625,0.2891 0.0625,0.9219 l -3.0664,0 q 0.0195,0.6367 0.3007,1.0215 0.2813,0.3848 0.8711,0.3848 0.5508,0 0.8789,-0.3633 0.1875,-0.211 0.2657,-0.4883 l 0.6914,0 q -0.0274,0.2305 -0.1817,0.5137 -0.1543,0.2832 -0.3457,0.4629 -0.3203,0.3125 -0.793,0.4218 -0.2539,0.0625 -0.5742,0.0625 -0.7812,0 -1.3242,-0.5683 -0.543,-0.5684 -0.543,-1.5918 0,-1.0078 0.5469,-1.6367 0.5469,-0.6289 1.4297,-0.6289 0.4453,0 0.8633,0.2089 z m 0.2578,1.6426 q -0.043,-0.457 -0.1992,-0.7304 -0.2891,-0.5079 -0.9649,-0.5079 -0.4843,0 -0.8125,0.3496 -0.3281,0.3497 -0.3476,0.8887 z m 1.6055,-1.7578 0.6679,0 0,0.7227 q 0.0821,-0.211 0.4024,-0.5137 0.3203,-0.3027 0.7383,-0.3027 0.0195,0 0.0664,0.0039 0.0468,0.0039 0.1601,0.0156 l 0,0.7422 q -0.0625,-0.0117 -0.1152,-0.0156 -0.0527,-0.004 -0.1152,-0.004 -0.5313,0 -0.8165,0.3418 -0.2851,0.3418 -0.2851,0.7872 l 0,2.4062 -0.7031,0 z m 7.6289,1.0742 q 0.5469,0 0.8652,-0.2187 0.3184,-0.2188 0.3184,-0.7891 0,-0.6133 -0.4453,-0.8359 -0.2383,-0.1172 -0.6368,-0.1172 l -1.8984,0 0,1.9609 z m -2.5742,-2.6289 2.6562,0 q 0.6563,0 1.082,0.1914 0.8086,0.3672 0.8086,1.3555 0,0.5156 -0.2129,0.8437 -0.2128,0.3282 -0.5957,0.5274 0.336,0.1367 0.5059,0.3594 0.1699,0.2226 0.1894,0.7226 l 0.0274,0.7695 q 0.0117,0.3282 0.0547,0.4883 0.0703,0.2735 0.25,0.3516 l 0,0.1289 -0.9531,0 q -0.0391,-0.0742 -0.0625,-0.1914 -0.0235,-0.1172 -0.0391,-0.4531 l -0.0469,-0.9571 q -0.0273,-0.5625 -0.4179,-0.7539 -0.2227,-0.1054 -0.6993,-0.1054 l -1.7695,0 0,2.4609 -0.7773,0 z m 9.8593,0 0,0.6836 -1.9336,0 0,5.0547 -0.789,0 0,-5.0547 -1.9336,0 0,-0.6836 z"
         id="path6591"
         inkscape:connector-curvature="0" />
    </g>
    <g
       transform="translate(30.2313,500.17961)"
       style="font-style:normal;font-weight:normal;font-size:8px;font-family:mwa_cmsy10;display:inline;color-interpolation:linearRGB;fill:#ffffff;fill-opacity:1;stroke:#999999;stroke-width:1;stroke-linecap:square;stroke-linejoin:miter;stroke-miterlimit:10;stroke-dasharray:none;stroke-dashoffset:0;stroke-opacity:1;color-rendering:optimizeQuality;image-rendering:optimizeQuality;shape-rendering:auto;text-rendering:geometricPrecision"
       id="g6593">
      <path
         style="fill:#ffffff;stroke:none"
         d="M 1.9062,1.4844 Q 1.8438,1.0156 1.6094,0.6328 1.375,0.25 1.0078,-0.0156 0.6406,-0.2812 0.1875,-0.375 0.1406,-0.3906 0.1406,-0.4531 l 0,-0.1719 q 0,-0.0312 0.0313,-0.0547 0.0312,-0.0234 0.0469,-0.0234 0.0156,0 0.0312,0.0156 0.5,0.1094 0.9141,0.4063 0.414,0.2968 0.6797,0.7343 l 0,-5.8593 q 0,-0.0626 0.0468,-0.1016 Q 1.9375,-5.5469 2,-5.5469 q 0.0625,0 0.1094,0.0391 0.0468,0.039 0.0468,0.1016 l 0,5.8593 Q 2.4219,0.0156 2.8438,-0.2812 3.2656,-0.5781 3.75,-0.6875 q 0.0156,-0.0156 0.0312,-0.0156 0.0313,0 0.0547,0.0234 0.0235,0.0235 0.0235,0.0547 l 0,0.1719 q 0,0.0156 -0.0156,0.039 Q 3.8281,-0.3906 3.8125,-0.375 3.1406,-0.2344 2.6641,0.2812 2.1875,0.7969 2.0938,1.4844 2.0781,1.5469 2,1.5469 q -0.0625,0 -0.0938,-0.0625 z"
         id="path6595"
         inkscape:connector-curvature="0" />
    </g>
    <g
       transform="translate(30.2313,298.17961)"
       style="font-style:normal;font-weight:normal;font-size:8px;font-family:mwa_cmsy10;display:inline;color-interpolation:linearRGB;fill:#ffffff;fill-opacity:1;stroke:#999999;stroke-width:1;stroke-linecap:square;stroke-linejoin:miter;stroke-miterlimit:10;stroke-dasharray:none;stroke-dashoffset:0;stroke-opacity:1;color-rendering:optimizeQuality;image-rendering:optimizeQuality;shape-rendering:auto;text-rendering:geometricPrecision"
       id="g6597">
      <path
         style="fill:#ffffff;stroke:none"
         d="m 1.8438,1.4062 0,-5.8593 q -0.1876,0.2969 -0.4297,0.5234 -0.2422,0.2266 -0.5391,0.3828 -0.2969,0.1563 -0.625,0.2344 -0.0156,0 -0.0312,0 -0.0782,0 -0.0782,-0.0625 l 0,-0.1719 q 0,-0.0625 0.0469,-0.0781 Q 0.6406,-3.7344 1.0078,-3.9922 1.375,-4.25 1.6094,-4.6328 1.8438,-5.0156 1.9062,-5.4844 1.9219,-5.5156 1.9453,-5.5312 1.9688,-5.5469 2,-5.5469 q 0.0312,0 0.0547,0.0157 0.0234,0.0156 0.0391,0.0468 0.0937,0.6875 0.5624,1.1953 0.4688,0.5079 1.1563,0.6641 0.0156,0 0.0313,0.0312 0.0156,0.0313 0.0156,0.0469 l 0,0.1719 q 0,0.0156 -0.0235,0.0391 -0.0234,0.0234 -0.0547,0.0234 -0.0156,0 -0.0312,0 Q 3.4219,-3.3906 3.125,-3.5469 2.8281,-3.7031 2.5859,-3.9297 2.3438,-4.1562 2.1562,-4.4531 l 0,5.8593 q 0,0.0626 -0.0468,0.1016 Q 2.0625,1.5469 2,1.5469 1.9375,1.5469 1.8906,1.5078 1.8438,1.4688 1.8438,1.4062 Z"
         id="path6599"
         inkscape:connector-curvature="0" />
    </g>
    <g
       transform="translate(30.2313,307.17961)"
       style="font-style:normal;font-weight:normal;font-size:8px;font-family:Helvetica;display:inline;color-interpolation:linearRGB;fill:#ffffff;fill-opacity:1;stroke:#999999;stroke-width:1;stroke-linecap:square;stroke-linejoin:miter;stroke-miterlimit:10;stroke-dasharray:none;stroke-dashoffset:0;stroke-opacity:1;color-rendering:optimizeQuality;image-rendering:optimizeQuality;shape-rendering:auto;text-rendering:geometricPrecision"
       id="g6601">
      <path
         style="fill:#ffffff;stroke:none"
         d="m 1.1172,-1.8516 q 0.0273,0.4883 0.2305,0.793 0.3867,0.5703 1.3632,0.5703 0.4375,0 0.7969,-0.125 0.6953,-0.2422 0.6953,-0.8672 0,-0.4687 -0.2929,-0.6679 Q 3.6133,-2.3438 2.9805,-2.4883 L 2.2031,-2.6641 Q 1.4414,-2.8359 1.125,-3.043 0.5781,-3.4023 0.5781,-4.1172 q 0,-0.7734 0.5352,-1.2695 0.5351,-0.4961 1.5156,-0.4961 0.9023,0 1.5332,0.4355 0.6309,0.4356 0.6309,1.3926 l -0.7305,0 q -0.0586,-0.4609 -0.25,-0.707 -0.3555,-0.4492 -1.207,-0.4492 -0.6875,0 -0.9883,0.289 -0.3008,0.2891 -0.3008,0.6719 0,0.4219 0.3516,0.6172 0.2304,0.125 1.0429,0.3125 l 0.8047,0.1836 q 0.5821,0.1328 0.8985,0.3633 0.5468,0.4023 0.5468,1.1679 0,0.9532 -0.6933,1.3633 Q 3.5742,0.168 2.6562,0.168 1.5859,0.168 0.9805,-0.3789 0.375,-0.9219 0.3867,-1.8516 Z m 4.7539,-3.8867 0.7031,0 0,5.7383 -0.7031,0 z m 4.3769,4.7559 q 0.2598,-0.5293 0.2598,-1.1778 0,-0.5859 -0.1875,-0.9531 -0.2969,-0.5781 -1.0234,-0.5781 -0.6446,0 -0.9375,0.4922 -0.293,0.4922 -0.293,1.1875 0,0.6679 0.293,1.1133 0.2929,0.4453 0.9297,0.4453 0.6992,0 0.9589,-0.5293 z m 0.4356,-2.7832 q 0.5586,0.539 0.5586,1.5859 0,1.0117 -0.4922,1.6719 -0.4922,0.6601 -1.5273,0.6601 -0.8633,0 -1.3711,-0.5839 Q 7.3438,-1.0156 7.3438,-2 q 0,-1.0547 0.5351,-1.6797 0.5352,-0.625 1.4375,-0.625 0.8086,0 1.3672,0.5391 z m 1.7187,-0.418 0.8047,3.2969 0.8164,-3.2969 0.7891,0 0.8203,3.2774 0.8555,-3.2774 0.7031,0 L 15.9766,0 15.2461,0 14.3945,-3.2383 13.5703,0 12.8398,0 11.6328,-4.1836 Z m 8.0586,0.1152 q 0.418,0.209 0.6368,0.5411 0.2109,0.3164 0.2812,0.7382 0.0625,0.2891 0.0625,0.9219 l -3.0664,0 q 0.0195,0.6367 0.3008,1.0215 0.2812,0.3848 0.8711,0.3848 0.5508,0 0.8789,-0.3633 0.1875,-0.211 0.2656,-0.4883 l 0.6914,0 q -0.0273,0.2305 -0.1816,0.5137 -0.1543,0.2832 -0.3457,0.4629 -0.3203,0.3125 -0.793,0.4218 -0.2539,0.0625 -0.5742,0.0625 -0.7813,0 -1.3242,-0.5683 -0.543,-0.5684 -0.543,-1.5918 0,-1.0078 0.5469,-1.6367 0.5468,-0.6289 1.4297,-0.6289 0.4453,0 0.8632,0.2089 z m 0.2579,1.6426 q -0.043,-0.457 -0.1993,-0.7304 -0.289,-0.5079 -0.9648,-0.5079 -0.4844,0 -0.8125,0.3496 -0.3281,0.3497 -0.3477,0.8887 z m 1.6054,-1.7578 0.668,0 0,0.7227 q 0.082,-0.211 0.4023,-0.5137 0.3203,-0.3027 0.7383,-0.3027 0.0195,0 0.0664,0.0039 0.0469,0.0039 0.1602,0.0156 l 0,0.7422 q -0.0625,-0.0117 -0.1153,-0.0156 -0.0527,-0.004 -0.1152,-0.004 -0.5312,0 -0.8164,0.3418 -0.2852,0.3418 -0.2852,0.7872 l 0,2.4062 -0.7031,0 z m 7.6289,1.0742 q 0.5469,0 0.8653,-0.2187 0.3183,-0.2188 0.3183,-0.7891 0,-0.6133 -0.4453,-0.8359 -0.2383,-0.1172 -0.6367,-0.1172 l -1.8985,0 0,1.9609 z m -2.5742,-2.6289 2.6563,0 q 0.6562,0 1.082,0.1914 0.8086,0.3672 0.8086,1.3555 0,0.5156 -0.2129,0.8437 -0.2129,0.3282 -0.5957,0.5274 0.3359,0.1367 0.5058,0.3594 0.17,0.2226 0.1895,0.7226 l 0.0273,0.7695 q 0.0118,0.3282 0.0547,0.4883 0.0703,0.2735 0.25,0.3516 l 0,0.1289 -0.9531,0 Q 31.1523,-0.0742 31.1289,-0.1914 31.1055,-0.3086 31.0898,-0.6445 L 31.043,-1.6016 q -0.0274,-0.5625 -0.418,-0.7539 -0.2227,-0.1054 -0.6992,-0.1054 l -1.7696,0 0,2.4609 -0.7773,0 z m 9.8594,0 0,0.6836 -1.9336,0 0,5.0547 -0.7891,0 0,-5.0547 -1.9336,0 0,-0.6836 z"
         id="path6603"
         inkscape:connector-curvature="0" />
    </g>
    <g
       transform="translate(-158.7687,-165.82039)"
       style="font-style:normal;font-weight:normal;font-size:12px;font-family:Dialog;display:inline;color-interpolation:linearRGB;fill:#ffffff;fill-opacity:1;stroke:#ffffff;stroke-width:0.80000001;stroke-linecap:butt;stroke-linejoin:round;stroke-miterlimit:10;stroke-dasharray:none;stroke-dashoffset:0;stroke-opacity:1;color-rendering:optimizeQuality;image-rendering:optimizeQuality;shape-rendering:auto;text-rendering:geometricPrecision"
       id="g6605">
      <line
         y2="554.03052"
         style="fill:#ffffff;stroke:#ffffff;stroke-width:0.80000001;stroke-miterlimit:10;stroke-dasharray:none;stroke-opacity:1"
         x1="187"
         x2="413"
         y1="554.03052"
         id="line6607" />
    </g>
    <g
       transform="translate(-158.7687,-165.82039)"
       style="font-style:normal;font-weight:normal;font-size:12px;font-family:Dialog;display:inline;color-interpolation:linearRGB;fill:#7570b3;fill-opacity:0.4;stroke:#7570b3;stroke-width:0.69999999;stroke-linecap:square;stroke-linejoin:miter;stroke-miterlimit:10;stroke-dasharray:none;stroke-dashoffset:0;stroke-opacity:0.4;color-rendering:optimizeQuality;image-rendering:optimizeQuality;shape-rendering:auto;text-rendering:geometricPrecision"
       id="g6609">
      <path
         d="m 209.6,556.2728 45.2,-37.0307 45.2,3.1934 45.2,20.5096 45.2,-0.5741"
         style="fill:none;fill-rule:evenodd"
         id="path6611"
         inkscape:connector-curvature="0" />
      <path
         d="m 209.6,571.9114 45.2,-32.3368 45.2,22.0749 45.2,-10.2178 45.2,19.0717"
         style="fill:none;fill-rule:evenodd"
         id="path6613"
         inkscape:connector-curvature="0" />
      <path
         d="m 209.6,546.3385 45.2,19.8032 45.2,-29.7754 45.2,26.6771 45.2,-11.2969"
         style="fill:none;fill-rule:evenodd"
         id="path6615"
         inkscape:connector-curvature="0" />
      <path
         d="m 209.6,603.0598 45.2,-60.4615 45.2,20.6258 45.2,-8.7341 45.2,-22.7273"
         style="fill:none;fill-rule:evenodd"
         id="path6617"
         inkscape:connector-curvature="0" />
      <path
         d="m 209.6,526.8066 45.2,43.7444 45.2,-20.3185 45.2,-12.2366 45.2,19.4938"
         style="fill:none;fill-rule:evenodd"
         id="path6619"
         inkscape:connector-curvature="0" />
      <path
         d="m 209.6,552.73 45.2,-2.5293 45.2,-44.5758 45.2,51.5857 45.2,-19.9645"
         style="fill:none;fill-rule:evenodd"
         id="path6621"
         inkscape:connector-curvature="0" />
      <path
         d="m 209.6,553.2775 45.2,-4.8763 45.2,-12.6522 45.2,1.2616 45.2,14.1182"
         style="fill:none;fill-rule:evenodd"
         id="path6623"
         inkscape:connector-curvature="0" />
      <path
         d="m 209.6,532.3358 45.2,9.7189 45.2,10.8056 45.2,12.9581 45.2,-5.2453"
         style="fill:none;fill-rule:evenodd"
         id="path6625"
         inkscape:connector-curvature="0" />
      <path
         d="m 209.6,557.172 45.2,26.1539 45.2,-25.0381 45.2,3.6648 45.2,-3.0142"
         style="fill:none;fill-rule:evenodd"
         id="path6627"
         inkscape:connector-curvature="0" />
      <path
         d="m 209.6,574.6301 45.2,-6.7621 45.2,-12.7598 45.2,3.7486 45.2,-31.5327"
         style="fill:none;fill-rule:evenodd"
         id="path6629"
         inkscape:connector-curvature="0" />
      <path
         d="m 209.6,576.6093 45.2,-16.6809 45.2,-16.982 45.2,26.645 45.2,-19.3884"
         style="fill:none;fill-rule:evenodd"
         id="path6631"
         inkscape:connector-curvature="0" />
      <path
         d="m 209.6,555.8268 45.2,14.2051 45.2,-19.7277 45.2,1.7625 45.2,7.0634"
         style="fill:none;fill-rule:evenodd"
         id="path6633"
         inkscape:connector-curvature="0" />
      <path
         d="m 209.6,585.2902 45.2,-27.8365 45.2,-20.7169 45.2,18.6366 45.2,-0.007"
         style="fill:none;fill-rule:evenodd"
         id="path6635"
         inkscape:connector-curvature="0" />
      <path
         d="m 209.6,581.7844 45.2,-18.9431 45.2,-7.1869 45.2,-13.6741 45.2,13.8309"
         style="fill:none;fill-rule:evenodd"
         id="path6637"
         inkscape:connector-curvature="0" />
      <path
         d="m 209.6,605.9546 45.2,-32.4208 45.2,-13.7994 45.2,-11.1373 45.2,-1.8065"
         style="fill:none;fill-rule:evenodd"
         id="path6639"
         inkscape:connector-curvature="0" />
      <path
         d="m 209.6,560.6397 45.2,-10.8966 45.2,2.545 45.2,-0.8799 45.2,-3.7654"
         style="fill:none;fill-rule:evenodd"
         id="path6641"
         inkscape:connector-curvature="0" />
      <path
         d="m 209.6,564.1197 45.2,4.9397 45.2,-8.9298 45.2,21.5811 45.2,-12.1223"
         style="fill:none;fill-rule:evenodd"
         id="path6643"
         inkscape:connector-curvature="0" />
      <path
         d="m 209.6,549.7136 45.2,5.7393 45.2,-3.614 45.2,-8.2076 45.2,9.9498"
         style="fill:none;fill-rule:evenodd"
         id="path6645"
         inkscape:connector-curvature="0" />
      <path
         d="m 209.6,563.4784 45.2,-6.4194 45.2,-16.2099 45.2,6.3896 45.2,6.3137"
         style="fill:none;fill-rule:evenodd"
         id="path6647"
         inkscape:connector-curvature="0" />
      <path
         d="m 209.6,543.5542 45.2,2.8168 45.2,-0.3408 45.2,-6.8282 45.2,-4.917"
         style="fill:none;fill-rule:evenodd"
         id="path6649"
         inkscape:connector-curvature="0" />
      <path
         d="m 209.6,569.5552 45.2,17.2252 45.2,-17.8754 45.2,-18.3929 45.2,5.44"
         style="fill:none;fill-rule:evenodd"
         id="path6651"
         inkscape:connector-curvature="0" />
      <path
         d="m 209.6,577.6608 45.2,-23.295 45.2,2.9037 45.2,14.1386 45.2,-6.8241"
         style="fill:none;fill-rule:evenodd"
         id="path6653"
         inkscape:connector-curvature="0" />
      <path
         d="m 209.6,565.6316 45.2,8.3389 45.2,-9.2553 45.2,-4.8046 45.2,4.3026"
         style="fill:none;fill-rule:evenodd"
         id="path6655"
         inkscape:connector-curvature="0" />
    </g>
    <g
       transform="translate(-158.7687,-165.82039)"
       style="font-style:normal;font-weight:normal;font-size:12px;font-family:Dialog;display:inline;color-interpolation:linearRGB;fill:#7570b3;fill-opacity:1;stroke:#7570b3;stroke-width:4;stroke-linecap:butt;stroke-linejoin:round;stroke-miterlimit:10;stroke-dasharray:none;stroke-dashoffset:0;stroke-opacity:1;color-rendering:optimizeQuality;image-rendering:optimizeQuality;shape-rendering:auto;text-rendering:geometricPrecision"
       id="g6657">
      <path
         d="m 209.6,568.942 45.2,-7.1513 45.2,-9.963 45.2,4.1013 45.2,-1.2408"
         style="fill:none;fill-rule:evenodd"
         id="path6659"
         inkscape:connector-curvature="0" />
      <circle
         r="3.3333001"
         style="stroke:none"
         cx="0"
         transform="translate(209.6,568.942)"
         cy="0"
         id="circle6661" />
    </g>
    <g
       transform="translate(96.0313,395.97031)"
       style="font-style:normal;font-weight:normal;font-size:12px;font-family:Dialog;display:inline;color-interpolation:linearRGB;fill:#7570b3;fill-opacity:1;stroke:#7570b3;stroke-width:4;stroke-linecap:butt;stroke-linejoin:round;stroke-miterlimit:10;stroke-dasharray:none;stroke-dashoffset:0;stroke-opacity:1;color-rendering:optimizeQuality;image-rendering:optimizeQuality;shape-rendering:auto;text-rendering:geometricPrecision"
       id="g6663">
      <circle
         r="3.3333001"
         style="stroke:none"
         cx="0"
         cy="0"
         id="circle6665" />
    </g>
    <g
       transform="translate(141.2313,386.00731)"
       style="font-style:normal;font-weight:normal;font-size:12px;font-family:Dialog;display:inline;color-interpolation:linearRGB;fill:#7570b3;fill-opacity:1;stroke:#7570b3;stroke-width:4;stroke-linecap:butt;stroke-linejoin:round;stroke-miterlimit:10;stroke-dasharray:none;stroke-dashoffset:0;stroke-opacity:1;color-rendering:optimizeQuality;image-rendering:optimizeQuality;shape-rendering:auto;text-rendering:geometricPrecision"
       id="g6667">
      <circle
         r="3.3333001"
         style="stroke:none"
         cx="0"
         cy="0"
         id="circle6669" />
    </g>
    <g
       transform="translate(186.4313,390.10861)"
       style="font-style:normal;font-weight:normal;font-size:12px;font-family:Dialog;display:inline;color-interpolation:linearRGB;fill:#7570b3;fill-opacity:1;stroke:#7570b3;stroke-width:4;stroke-linecap:butt;stroke-linejoin:round;stroke-miterlimit:10;stroke-dasharray:none;stroke-dashoffset:0;stroke-opacity:1;color-rendering:optimizeQuality;image-rendering:optimizeQuality;shape-rendering:auto;text-rendering:geometricPrecision"
       id="g6671">
      <circle
         r="3.3333001"
         style="stroke:none"
         cx="0"
         cy="0"
         id="circle6673" />
    </g>
    <g
       transform="translate(231.6313,388.86781)"
       style="font-style:normal;font-weight:normal;font-size:12px;font-family:Dialog;display:inline;color-interpolation:linearRGB;fill:#7570b3;fill-opacity:1;stroke:#7570b3;stroke-width:4;stroke-linecap:butt;stroke-linejoin:round;stroke-miterlimit:10;stroke-dasharray:none;stroke-dashoffset:0;stroke-opacity:1;color-rendering:optimizeQuality;image-rendering:optimizeQuality;shape-rendering:auto;text-rendering:geometricPrecision"
       id="g6675">
      <circle
         r="3.3333001"
         style="stroke:none"
         cx="0"
         cy="0"
         id="circle6677" />
    </g>
    <g
       transform="translate(30.2313,491.17961)"
       style="font-style:normal;font-weight:normal;font-size:8px;font-family:Helvetica;display:inline;color-interpolation:linearRGB;fill:#ffffff;fill-opacity:1;stroke:#999999;stroke-width:1;stroke-linecap:square;stroke-linejoin:miter;stroke-miterlimit:10;stroke-dasharray:none;stroke-dashoffset:0;stroke-opacity:1;color-rendering:optimizeQuality;image-rendering:optimizeQuality;shape-rendering:auto;text-rendering:geometricPrecision"
       id="g6679">
      <path
         style="fill:#ffffff;stroke:none"
         d="m 0.6836,-5.7383 3.9805,0 0,0.7031 -3.2032,0 0,1.7422 2.8164,0 0,0.6836 -2.8164,0 0,2.6094 -0.7773,0 z m 5.4805,5.1055 q 0.2226,0.1758 0.5273,0.1758 0.3711,0 0.7188,-0.1719 0.5859,-0.2852 0.5859,-0.9336 l 0,-0.5664 q -0.1289,0.082 -0.332,0.1367 -0.2032,0.0547 -0.3985,0.0781 l -0.4258,0.0547 q -0.3828,0.0508 -0.5742,0.1602 -0.3242,0.1836 -0.3242,0.5859 0,0.3047 0.2227,0.4805 z m 1.4804,-1.9024 q 0.2422,-0.0312 0.3243,-0.2031 0.0468,-0.0937 0.0468,-0.2695 0,-0.3594 -0.2558,-0.5215 -0.2559,-0.1621 -0.7325,-0.1621 -0.5507,0 -0.7812,0.2969 -0.1289,0.164 -0.168,0.4883 l -0.6562,0 q 0.0195,-0.7735 0.5019,-1.0762 0.4824,-0.3028 1.1192,-0.3028 0.7382,0 1.1992,0.2813 0.457,0.2812 0.457,0.875 l 0,2.4101 q 0,0.1094 0.0449,0.1758 0.045,0.0664 0.1895,0.0664 0.0469,0 0.1055,-0.0058 0.0586,-0.0059 0.125,-0.0176 l 0,0.5195 Q 9,0.0664 8.9141,0.0781 8.8281,0.0898 8.6797,0.0898 8.3164,0.0898 8.1523,-0.168 8.0664,-0.3047 8.0312,-0.5547 7.8164,-0.2734 7.4141,-0.0664 7.0117,0.1406 6.5273,0.1406 5.9453,0.1406 5.5762,-0.2129 5.207,-0.5664 5.207,-1.0977 5.207,-1.6797 5.5703,-2 5.9336,-2.3203 6.5234,-2.3945 Z m 2.625,1.2227 q 0.0313,0.3516 0.1758,0.5391 0.2656,0.3398 0.9219,0.3398 0.3906,0 0.6875,-0.1699 0.2969,-0.1699 0.2969,-0.5254 0,-0.2695 -0.2383,-0.4102 -0.1524,-0.0859 -0.6016,-0.1992 l -0.5586,-0.1406 q -0.5351,-0.1328 -0.789,-0.2969 -0.4532,-0.2851 -0.4532,-0.789 0,-0.5938 0.4278,-0.961 0.4277,-0.3672 1.1504,-0.3672 0.9453,0 1.3632,0.5547 0.2618,0.3516 0.2539,0.7578 l -0.664,0 q -0.0195,-0.2383 -0.168,-0.4336 -0.2422,-0.2773 -0.8398,-0.2773 -0.3985,0 -0.6035,0.1523 -0.2051,0.1524 -0.2051,0.4024 0,0.2734 0.2695,0.4375 0.1563,0.0976 0.4609,0.1719 l 0.4649,0.1132 q 0.7578,0.1836 1.0156,0.3555 0.4102,0.2695 0.4102,0.8477 0,0.5586 -0.4239,0.9648 -0.4238,0.4063 -1.291,0.4063 -0.9336,0 -1.3222,-0.4239 -0.3887,-0.4238 -0.416,-1.0488 z m 3.7227,-4.0391 0.7109,0 0,1.168 0.668,0 0,0.5742 -0.668,0 0,2.7305 q 0,0.2187 0.1485,0.293 0.082,0.0429 0.2734,0.0429 0.0508,0 0.1094,-0.0019 0.0586,-0.002 0.1367,-0.0098 l 0,0.5547 q -0.1211,0.0352 -0.252,0.0508 -0.1308,0.0156 -0.2832,0.0156 -0.4921,0 -0.6679,-0.2519 -0.1758,-0.252 -0.1758,-0.6543 l 0,-2.7696 -0.5664,0 0,-0.5742 0.5664,0 z m 4.6875,1.2832 q 0.418,0.209 0.6367,0.5411 0.2109,0.3164 0.2813,0.7382 0.0625,0.2891 0.0625,0.9219 l -3.0664,0 q 0.0195,0.6367 0.3007,1.0215 0.2813,0.3848 0.8711,0.3848 0.5508,0 0.8789,-0.3633 0.1875,-0.211 0.2657,-0.4883 l 0.6914,0 q -0.0274,0.2305 -0.1817,0.5137 -0.1543,0.2832 -0.3457,0.4629 -0.3203,0.3125 -0.793,0.4218 -0.2539,0.0625 -0.5742,0.0625 -0.7812,0 -1.3242,-0.5683 -0.543,-0.5684 -0.543,-1.5918 0,-1.0078 0.5469,-1.6367 0.5469,-0.6289 1.4297,-0.6289 0.4453,0 0.8633,0.2089 z m 0.2578,1.6426 q -0.043,-0.457 -0.1992,-0.7304 -0.2891,-0.5079 -0.9649,-0.5079 -0.4843,0 -0.8125,0.3496 -0.3281,0.3497 -0.3476,0.8887 z m 1.6055,-1.7578 0.6679,0 0,0.7227 q 0.0821,-0.211 0.4024,-0.5137 0.3203,-0.3027 0.7383,-0.3027 0.0195,0 0.0664,0.0039 0.0468,0.0039 0.1601,0.0156 l 0,0.7422 q -0.0625,-0.0117 -0.1152,-0.0156 -0.0527,-0.004 -0.1152,-0.004 -0.5313,0 -0.8165,0.3418 -0.2851,0.3418 -0.2851,0.7872 l 0,2.4062 -0.7031,0 z m 7.6289,1.0742 q 0.5469,0 0.8652,-0.2187 0.3184,-0.2188 0.3184,-0.7891 0,-0.6133 -0.4453,-0.8359 -0.2383,-0.1172 -0.6368,-0.1172 l -1.8984,0 0,1.9609 z m -2.5742,-2.6289 2.6562,0 q 0.6563,0 1.082,0.1914 0.8086,0.3672 0.8086,1.3555 0,0.5156 -0.2129,0.8437 -0.2128,0.3282 -0.5957,0.5274 0.336,0.1367 0.5059,0.3594 0.1699,0.2226 0.1894,0.7226 l 0.0274,0.7695 q 0.0117,0.3282 0.0547,0.4883 0.0703,0.2735 0.25,0.3516 l 0,0.1289 -0.9531,0 q -0.0391,-0.0742 -0.0625,-0.1914 -0.0235,-0.1172 -0.0391,-0.4531 l -0.0469,-0.9571 q -0.0273,-0.5625 -0.4179,-0.7539 -0.2227,-0.1054 -0.6993,-0.1054 l -1.7695,0 0,2.4609 -0.7773,0 z m 9.8593,0 0,0.6836 -1.9336,0 0,5.0547 -0.789,0 0,-5.0547 -1.9336,0 0,-0.6836 z"
         id="path6681"
         inkscape:connector-curvature="0" />
    </g>
    <g
       transform="translate(30.2313,500.17961)"
       style="font-style:normal;font-weight:normal;font-size:8px;font-family:mwa_cmsy10;display:inline;color-interpolation:linearRGB;fill:#ffffff;fill-opacity:1;stroke:#999999;stroke-width:1;stroke-linecap:square;stroke-linejoin:miter;stroke-miterlimit:10;stroke-dasharray:none;stroke-dashoffset:0;stroke-opacity:1;color-rendering:optimizeQuality;image-rendering:optimizeQuality;shape-rendering:auto;text-rendering:geometricPrecision"
       id="g6683">
      <path
         style="fill:#ffffff;stroke:none"
         d="M 1.9062,1.4844 Q 1.8438,1.0156 1.6094,0.6328 1.375,0.25 1.0078,-0.0156 0.6406,-0.2812 0.1875,-0.375 0.1406,-0.3906 0.1406,-0.4531 l 0,-0.1719 q 0,-0.0312 0.0313,-0.0547 0.0312,-0.0234 0.0469,-0.0234 0.0156,0 0.0312,0.0156 0.5,0.1094 0.9141,0.4063 0.414,0.2968 0.6797,0.7343 l 0,-5.8593 q 0,-0.0626 0.0468,-0.1016 Q 1.9375,-5.5469 2,-5.5469 q 0.0625,0 0.1094,0.0391 0.0468,0.039 0.0468,0.1016 l 0,5.8593 Q 2.4219,0.0156 2.8438,-0.2812 3.2656,-0.5781 3.75,-0.6875 q 0.0156,-0.0156 0.0312,-0.0156 0.0313,0 0.0547,0.0234 0.0235,0.0235 0.0235,0.0547 l 0,0.1719 q 0,0.0156 -0.0156,0.039 Q 3.8281,-0.3906 3.8125,-0.375 3.1406,-0.2344 2.6641,0.2812 2.1875,0.7969 2.0938,1.4844 2.0781,1.5469 2,1.5469 q -0.0625,0 -0.0938,-0.0625 z"
         id="path6685"
         inkscape:connector-curvature="0" />
    </g>
    <g
       transform="translate(30.2313,298.17961)"
       style="font-style:normal;font-weight:normal;font-size:8px;font-family:mwa_cmsy10;display:inline;color-interpolation:linearRGB;fill:#ffffff;fill-opacity:1;stroke:#999999;stroke-width:1;stroke-linecap:square;stroke-linejoin:miter;stroke-miterlimit:10;stroke-dasharray:none;stroke-dashoffset:0;stroke-opacity:1;color-rendering:optimizeQuality;image-rendering:optimizeQuality;shape-rendering:auto;text-rendering:geometricPrecision"
       id="g6687">
      <path
         style="fill:#ffffff;stroke:none"
         d="m 1.8438,1.4062 0,-5.8593 q -0.1876,0.2969 -0.4297,0.5234 -0.2422,0.2266 -0.5391,0.3828 -0.2969,0.1563 -0.625,0.2344 -0.0156,0 -0.0312,0 -0.0782,0 -0.0782,-0.0625 l 0,-0.1719 q 0,-0.0625 0.0469,-0.0781 Q 0.6406,-3.7344 1.0078,-3.9922 1.375,-4.25 1.6094,-4.6328 1.8438,-5.0156 1.9062,-5.4844 1.9219,-5.5156 1.9453,-5.5312 1.9688,-5.5469 2,-5.5469 q 0.0312,0 0.0547,0.0157 0.0234,0.0156 0.0391,0.0468 0.0937,0.6875 0.5624,1.1953 0.4688,0.5079 1.1563,0.6641 0.0156,0 0.0313,0.0312 0.0156,0.0313 0.0156,0.0469 l 0,0.1719 q 0,0.0156 -0.0235,0.0391 -0.0234,0.0234 -0.0547,0.0234 -0.0156,0 -0.0312,0 Q 3.4219,-3.3906 3.125,-3.5469 2.8281,-3.7031 2.5859,-3.9297 2.3438,-4.1562 2.1562,-4.4531 l 0,5.8593 q 0,0.0626 -0.0468,0.1016 Q 2.0625,1.5469 2,1.5469 1.9375,1.5469 1.8906,1.5078 1.8438,1.4688 1.8438,1.4062 Z"
         id="path6689"
         inkscape:connector-curvature="0" />
    </g>
    <g
       transform="translate(30.2313,307.17961)"
       style="font-style:normal;font-weight:normal;font-size:8px;font-family:Helvetica;display:inline;color-interpolation:linearRGB;fill:#ffffff;fill-opacity:1;stroke:#999999;stroke-width:1;stroke-linecap:square;stroke-linejoin:miter;stroke-miterlimit:10;stroke-dasharray:none;stroke-dashoffset:0;stroke-opacity:1;color-rendering:optimizeQuality;image-rendering:optimizeQuality;shape-rendering:auto;text-rendering:geometricPrecision"
       id="g6691">
      <path
         style="fill:#ffffff;stroke:none"
         d="m 1.1172,-1.8516 q 0.0273,0.4883 0.2305,0.793 0.3867,0.5703 1.3632,0.5703 0.4375,0 0.7969,-0.125 0.6953,-0.2422 0.6953,-0.8672 0,-0.4687 -0.2929,-0.6679 Q 3.6133,-2.3438 2.9805,-2.4883 L 2.2031,-2.6641 Q 1.4414,-2.8359 1.125,-3.043 0.5781,-3.4023 0.5781,-4.1172 q 0,-0.7734 0.5352,-1.2695 0.5351,-0.4961 1.5156,-0.4961 0.9023,0 1.5332,0.4355 0.6309,0.4356 0.6309,1.3926 l -0.7305,0 q -0.0586,-0.4609 -0.25,-0.707 -0.3555,-0.4492 -1.207,-0.4492 -0.6875,0 -0.9883,0.289 -0.3008,0.2891 -0.3008,0.6719 0,0.4219 0.3516,0.6172 0.2304,0.125 1.0429,0.3125 l 0.8047,0.1836 q 0.5821,0.1328 0.8985,0.3633 0.5468,0.4023 0.5468,1.1679 0,0.9532 -0.6933,1.3633 Q 3.5742,0.168 2.6562,0.168 1.5859,0.168 0.9805,-0.3789 0.375,-0.9219 0.3867,-1.8516 Z m 4.7539,-3.8867 0.7031,0 0,5.7383 -0.7031,0 z m 4.3769,4.7559 q 0.2598,-0.5293 0.2598,-1.1778 0,-0.5859 -0.1875,-0.9531 -0.2969,-0.5781 -1.0234,-0.5781 -0.6446,0 -0.9375,0.4922 -0.293,0.4922 -0.293,1.1875 0,0.6679 0.293,1.1133 0.2929,0.4453 0.9297,0.4453 0.6992,0 0.9589,-0.5293 z m 0.4356,-2.7832 q 0.5586,0.539 0.5586,1.5859 0,1.0117 -0.4922,1.6719 -0.4922,0.6601 -1.5273,0.6601 -0.8633,0 -1.3711,-0.5839 Q 7.3438,-1.0156 7.3438,-2 q 0,-1.0547 0.5351,-1.6797 0.5352,-0.625 1.4375,-0.625 0.8086,0 1.3672,0.5391 z m 1.7187,-0.418 0.8047,3.2969 0.8164,-3.2969 0.7891,0 0.8203,3.2774 0.8555,-3.2774 0.7031,0 L 15.9766,0 15.2461,0 14.3945,-3.2383 13.5703,0 12.8398,0 11.6328,-4.1836 Z m 8.0586,0.1152 q 0.418,0.209 0.6368,0.5411 0.2109,0.3164 0.2812,0.7382 0.0625,0.2891 0.0625,0.9219 l -3.0664,0 q 0.0195,0.6367 0.3008,1.0215 0.2812,0.3848 0.8711,0.3848 0.5508,0 0.8789,-0.3633 0.1875,-0.211 0.2656,-0.4883 l 0.6914,0 q -0.0273,0.2305 -0.1816,0.5137 -0.1543,0.2832 -0.3457,0.4629 -0.3203,0.3125 -0.793,0.4218 -0.2539,0.0625 -0.5742,0.0625 -0.7813,0 -1.3242,-0.5683 -0.543,-0.5684 -0.543,-1.5918 0,-1.0078 0.5469,-1.6367 0.5468,-0.6289 1.4297,-0.6289 0.4453,0 0.8632,0.2089 z m 0.2579,1.6426 q -0.043,-0.457 -0.1993,-0.7304 -0.289,-0.5079 -0.9648,-0.5079 -0.4844,0 -0.8125,0.3496 -0.3281,0.3497 -0.3477,0.8887 z m 1.6054,-1.7578 0.668,0 0,0.7227 q 0.082,-0.211 0.4023,-0.5137 0.3203,-0.3027 0.7383,-0.3027 0.0195,0 0.0664,0.0039 0.0469,0.0039 0.1602,0.0156 l 0,0.7422 q -0.0625,-0.0117 -0.1153,-0.0156 -0.0527,-0.004 -0.1152,-0.004 -0.5312,0 -0.8164,0.3418 -0.2852,0.3418 -0.2852,0.7872 l 0,2.4062 -0.7031,0 z m 7.6289,1.0742 q 0.5469,0 0.8653,-0.2187 0.3183,-0.2188 0.3183,-0.7891 0,-0.6133 -0.4453,-0.8359 -0.2383,-0.1172 -0.6367,-0.1172 l -1.8985,0 0,1.9609 z m -2.5742,-2.6289 2.6563,0 q 0.6562,0 1.082,0.1914 0.8086,0.3672 0.8086,1.3555 0,0.5156 -0.2129,0.8437 -0.2129,0.3282 -0.5957,0.5274 0.3359,0.1367 0.5058,0.3594 0.17,0.2226 0.1895,0.7226 l 0.0273,0.7695 q 0.0118,0.3282 0.0547,0.4883 0.0703,0.2735 0.25,0.3516 l 0,0.1289 -0.9531,0 Q 31.1523,-0.0742 31.1289,-0.1914 31.1055,-0.3086 31.0898,-0.6445 L 31.043,-1.6016 q -0.0274,-0.5625 -0.418,-0.7539 -0.2227,-0.1054 -0.6992,-0.1054 l -1.7696,0 0,2.4609 -0.7773,0 z m 9.8594,0 0,0.6836 -1.9336,0 0,5.0547 -0.7891,0 0,-5.0547 -1.9336,0 0,-0.6836 z"
         id="path6693"
         inkscape:connector-curvature="0" />
    </g>
    <g
       transform="translate(158.0685,283.97961)"
       style="font-weight:bold;font-size:9px;font-family:Helvetica;color-interpolation:linearRGB;fill:#ffffff;color-rendering:optimizeQuality;image-rendering:optimizeQuality;text-rendering:geometricPrecision"
       id="g10389">
      <text
         sodipodi:linespacing="125%"
         id="text10391"
         y="-8.4825411"
         x="-89.835251"
         style="font-style:normal;font-weight:normal;font-size:16.25px;line-height:125%;font-family:sans-serif;letter-spacing:0px;word-spacing:0px;fill:#000000;fill-opacity:1;stroke:none;stroke-width:1px;stroke-linecap:butt;stroke-linejoin:miter;stroke-opacity:1"
         xml:space="preserve"><tspan
           style="font-size:12.5px;fill:#ffffff"
           y="-8.4825411"
           x="-89.835251"
           id="tspan10393"
           sodipodi:role="line">Errors in Previous Trials</tspan></text>
    </g>
  </g>
</svg>
