<?xml version="1.0" encoding="UTF-8" standalone="no"?>
<svg
   xmlns:dc="http://purl.org/dc/elements/1.1/"
   xmlns:cc="http://creativecommons.org/ns#"
   xmlns:rdf="http://www.w3.org/1999/02/22-rdf-syntax-ns#"
   xmlns:svg="http://www.w3.org/2000/svg"
   xmlns="http://www.w3.org/2000/svg"
   xmlns:sodipodi="http://sodipodi.sourceforge.net/DTD/sodipodi-0.dtd"
   xmlns:inkscape="http://www.inkscape.org/namespaces/inkscape"
   style="font-style:normal;font-weight:normal;font-size:12px;font-family:Dialog;color-interpolation:auto;fill:#000000;fill-opacity:1;stroke:#000000;stroke-width:1;stroke-linecap:square;stroke-linejoin:miter;stroke-miterlimit:10;stroke-dasharray:none;stroke-dashoffset:0;stroke-opacity:1;color-rendering:auto;image-rendering:auto;shape-rendering:auto;text-rendering:auto"
   width="264.0853"
   height="255.93192"
   id="svg5628"
   version="1.1"
   inkscape:version="0.91 r13725"
   sodipodi:docname="behavior-react-distribution.svg">
  <metadata
     id="metadata7099">
    <rdf:RDF>
      <cc:Work
         rdf:about="">
        <dc:format>image/svg+xml</dc:format>
        <dc:type
           rdf:resource="http://purl.org/dc/dcmitype/StillImage" />
        <dc:title></dc:title>
      </cc:Work>
    </rdf:RDF>
  </metadata>
  <sodipodi:namedview
     pagecolor="#000000"
     bordercolor="#666666"
     borderopacity="1"
     objecttolerance="10"
     gridtolerance="10"
     guidetolerance="10"
     inkscape:pageopacity="0"
     inkscape:pageshadow="2"
     inkscape:window-width="1440"
     inkscape:window-height="877"
     id="namedview7097"
     showgrid="false"
     inkscape:zoom="0.96736136"
     inkscape:cx="36.525154"
     inkscape:cy="-2.3238636"
     inkscape:window-x="0"
     inkscape:window-y="0"
     inkscape:window-maximized="0"
     inkscape:current-layer="layer1"
     fit-margin-top="0"
     fit-margin-left="0"
     fit-margin-right="0"
     fit-margin-bottom="0" />
  <!--Generated by the Batik Graphics2D SVG Generator-->
  <defs
     id="genericDefs">
    <defs
       id="defs1">
      <clipPath
         id="clipPath1"
         clipPathUnits="userSpaceOnUse">
        <path
           id="path5635"
           d="m 0,0 1440,0 0,749 L 0,749 0,0 Z"
           inkscape:connector-curvature="0" />
      </clipPath>
    </defs>
  </defs>
  <g
     id="g5647"
     style="color-interpolation:linearRGB;fill:#ffffff;stroke:#ffffff;stroke-width:0.69999999;stroke-linejoin:round;color-rendering:optimizeQuality;image-rendering:optimizeQuality;text-rendering:geometricPrecision"
     transform="translate(-154.9225,-105.82039)">
    <line
       id="line5649"
       y1="351"
       x2="413"
       x1="187"
       style="fill:#ffffff;stroke:#ffffff"
       y2="351" />
    <line
       id="line5651"
       y1="351"
       x2="187"
       x1="187"
       style="fill:#ffffff;stroke:#ffffff"
       y2="346.48001" />
    <line
       id="line5653"
       y1="351"
       x2="232.2"
       x1="232.2"
       style="fill:#ffffff;stroke:#ffffff"
       y2="346.48001" />
    <line
       id="line5655"
       y1="351"
       x2="277.39999"
       x1="277.39999"
       style="fill:#ffffff;stroke:#ffffff"
       y2="346.48001" />
    <line
       id="line5657"
       y1="351"
       x2="322.60001"
       x1="322.60001"
       style="fill:#ffffff;stroke:#ffffff"
       y2="346.48001" />
    <line
       id="line5659"
       y1="351"
       x2="367.79999"
       x1="367.79999"
       style="fill:#ffffff;stroke:#ffffff"
       y2="346.48001" />
    <line
       id="line5661"
       y1="351"
       x2="413"
       x1="413"
       style="fill:#ffffff;stroke:#ffffff"
       y2="346.48001" />
  </g>
  <g
     id="g5663"
     style="font-size:8px;font-family:Helvetica;color-interpolation:linearRGB;fill:#4d4d4d;stroke:#4d4d4d;color-rendering:optimizeQuality;image-rendering:optimizeQuality;text-rendering:geometricPrecision"
     transform="translate(32.0775,248.77961)">
    <path
       inkscape:connector-curvature="0"
       id="path5665"
       d="m 1.2344,2.3008 q 0.375,0.6914 0.375,1.8945 0,1.1406 -0.3399,1.8867 -0.4922,1.0703 -1.6093,1.0703 -1.0079,0 -1.5,-0.875 Q -2.25,5.5469 -2.25,4.3164 q 0,-0.9531 0.2461,-1.6367 0.4609,-1.2735 1.668,-1.2735 1.0859,0 1.5703,0.8946 z M 0.5273,6.0273 Q 0.8516,5.543 0.8516,4.2227 0.8516,3.2695 0.6172,2.6543 0.3828,2.0391 -0.293,2.0391 q -0.6211,0 -0.9082,0.5839 -0.2871,0.584 -0.2871,1.7208 0,0.8554 0.1836,1.375 0.2813,0.7929 0.9609,0.7929 0.5469,0 0.8711,-0.4844 z"
       style="fill:#ffffff;stroke:none" />
  </g>
  <g
     id="g5667"
     style="font-size:8px;font-family:Helvetica;color-interpolation:linearRGB;fill:#4d4d4d;stroke:#4d4d4d;color-rendering:optimizeQuality;image-rendering:optimizeQuality;text-rendering:geometricPrecision"
     transform="translate(77.2775,248.77961)">
    <path
       inkscape:connector-curvature="0"
       id="path5669"
       d="m -6.2344,3.0391 0,-0.5391 q 0.7617,-0.0742 1.0625,-0.248 0.3008,-0.1739 0.4492,-0.8223 l 0.5547,0 0,5.5703 -0.75,0 0,-3.9609 z m 7.418,-0.7383 q 0.375,0.6914 0.375,1.8945 0,1.1406 -0.3398,1.8867 -0.4922,1.0703 -1.6094,1.0703 -1.0078,0 -1.5,-0.875 -0.4102,-0.7304 -0.4102,-1.9609 0,-0.9531 0.2461,-1.6367 0.4609,-1.2735 1.668,-1.2735 1.0859,0 1.5703,0.8946 z M 0.4766,6.0273 Q 0.8008,5.543 0.8008,4.2227 0.8008,3.2695 0.5664,2.6543 0.332,2.0391 -0.3438,2.0391 q -0.621,0 -0.9082,0.5839 -0.2871,0.584 -0.2871,1.7208 0,0.8554 0.1836,1.375 0.2813,0.7929 0.961,0.7929 0.5468,0 0.8711,-0.4844 z M 5.6328,2.3008 q 0.375,0.6914 0.375,1.8945 0,1.1406 -0.3398,1.8867 -0.4922,1.0703 -1.6094,1.0703 -1.0078,0 -1.5,-0.875 -0.4102,-0.7304 -0.4102,-1.9609 0,-0.9531 0.2461,-1.6367 0.461,-1.2735 1.668,-1.2735 1.0859,0 1.5703,0.8946 z M 4.9258,6.0273 Q 5.25,5.543 5.25,4.2227 5.25,3.2695 5.0156,2.6543 4.7812,2.0391 4.1055,2.0391 q -0.6211,0 -0.9082,0.5839 -0.2871,0.584 -0.2871,1.7208 0,0.8554 0.1836,1.375 0.2812,0.7929 0.9609,0.7929 0.5469,0 0.8711,-0.4844 z"
       style="fill:#ffffff;stroke:none" />
  </g>
  <g
     id="g5671"
     style="font-size:8px;font-family:Helvetica;color-interpolation:linearRGB;fill:#4d4d4d;stroke:#4d4d4d;color-rendering:optimizeQuality;image-rendering:optimizeQuality;text-rendering:geometricPrecision"
     transform="translate(122.4775,248.77961)">
    <path
       inkscape:connector-curvature="0"
       id="path5673"
       d="M -6.4512,5.7422 Q -6.1914,5.207 -5.4375,4.7695 l 0.75,-0.4336 q 0.5039,-0.2929 0.707,-0.5 0.3203,-0.3242 0.3203,-0.7421 0,-0.4883 -0.2929,-0.7754 -0.293,-0.2872 -0.7813,-0.2872 -0.7226,0 -1,0.5469 -0.1484,0.293 -0.164,0.8125 l -0.7149,0 q 0.0117,-0.7304 0.2695,-1.1914 0.4571,-0.8125 1.6133,-0.8125 0.961,0 1.4043,0.5195 0.4434,0.5196 0.4434,1.1563 0,0.6719 -0.4727,1.1484 -0.2734,0.2774 -0.9804,0.6719 L -4.8711,5.1797 Q -5.2539,5.3906 -5.4727,5.582 -5.8633,5.9219 -5.9648,6.3359 l 3.0546,0 0,0.6641 L -6.75,7 Q -6.7109,6.2773 -6.4512,5.7422 Z M 1.1836,2.3008 q 0.375,0.6914 0.375,1.8945 0,1.1406 -0.3398,1.8867 -0.4922,1.0703 -1.6094,1.0703 -1.0078,0 -1.5,-0.875 -0.4102,-0.7304 -0.4102,-1.9609 0,-0.9531 0.2461,-1.6367 0.4609,-1.2735 1.668,-1.2735 1.0859,0 1.5703,0.8946 z M 0.4766,6.0273 Q 0.8008,5.543 0.8008,4.2227 0.8008,3.2695 0.5664,2.6543 0.332,2.0391 -0.3438,2.0391 q -0.621,0 -0.9082,0.5839 -0.2871,0.584 -0.2871,1.7208 0,0.8554 0.1836,1.375 0.2813,0.7929 0.961,0.7929 0.5468,0 0.8711,-0.4844 z M 5.6328,2.3008 q 0.375,0.6914 0.375,1.8945 0,1.1406 -0.3398,1.8867 -0.4922,1.0703 -1.6094,1.0703 -1.0078,0 -1.5,-0.875 -0.4102,-0.7304 -0.4102,-1.9609 0,-0.9531 0.2461,-1.6367 0.461,-1.2735 1.668,-1.2735 1.0859,0 1.5703,0.8946 z M 4.9258,6.0273 Q 5.25,5.543 5.25,4.2227 5.25,3.2695 5.0156,2.6543 4.7812,2.0391 4.1055,2.0391 q -0.6211,0 -0.9082,0.5839 -0.2871,0.584 -0.2871,1.7208 0,0.8554 0.1836,1.375 0.2812,0.7929 0.9609,0.7929 0.5469,0 0.8711,-0.4844 z"
       style="fill:#ffffff;stroke:none" />
  </g>
  <g
     id="g5675"
     style="font-size:8px;font-family:Helvetica;color-interpolation:linearRGB;fill:#4d4d4d;stroke:#4d4d4d;color-rendering:optimizeQuality;image-rendering:optimizeQuality;text-rendering:geometricPrecision"
     transform="translate(167.6775,248.77961)">
    <path
       inkscape:connector-curvature="0"
       id="path5677"
       d="M -6.3613,6.6074 Q -6.8086,6.0625 -6.8086,5.2812 l 0.7344,0 q 0.0469,0.543 0.2031,0.7891 0.2734,0.4414 0.9883,0.4414 0.5547,0 0.8906,-0.2969 0.336,-0.2968 0.336,-0.7656 0,-0.5781 -0.3536,-0.8086 -0.3535,-0.2304 -0.9824,-0.2304 -0.0703,0 -0.1426,0.0019 -0.0722,0.002 -0.1464,0.0059 l 0,-0.6211 q 0.1093,0.0117 0.1835,0.0156 0.0743,0.0039 0.1602,0.0039 0.3945,0 0.6484,-0.125 0.4453,-0.2187 0.4453,-0.7812 0,-0.418 -0.2968,-0.6446 -0.2969,-0.2265 -0.6914,-0.2265 -0.7032,0 -0.9727,0.4687 -0.1484,0.2578 -0.168,0.7344 l -0.6953,0 q 0,-0.625 0.25,-1.0625 0.4297,-0.7813 1.5118,-0.7813 0.8554,0 1.3242,0.3809 0.4687,0.3809 0.4687,1.1035 0,0.5156 -0.2773,0.836 -0.1719,0.1992 -0.4453,0.3124 0.4414,0.1211 0.6894,0.4668 0.2481,0.3458 0.2481,0.8458 0,0.8007 -0.5274,1.3046 -0.5273,0.5039 -1.4961,0.5039 -0.9922,0 -1.4394,-0.5449 z M 1.1836,2.3008 q 0.375,0.6914 0.375,1.8945 0,1.1406 -0.3398,1.8867 -0.4922,1.0703 -1.6094,1.0703 -1.0078,0 -1.5,-0.875 -0.4102,-0.7304 -0.4102,-1.9609 0,-0.9531 0.2461,-1.6367 0.4609,-1.2735 1.668,-1.2735 1.0859,0 1.5703,0.8946 z M 0.4766,6.0273 Q 0.8008,5.543 0.8008,4.2227 0.8008,3.2695 0.5664,2.6543 0.332,2.0391 -0.3438,2.0391 q -0.621,0 -0.9082,0.5839 -0.2871,0.584 -0.2871,1.7208 0,0.8554 0.1836,1.375 0.2813,0.7929 0.961,0.7929 0.5468,0 0.8711,-0.4844 z M 5.6328,2.3008 q 0.375,0.6914 0.375,1.8945 0,1.1406 -0.3398,1.8867 -0.4922,1.0703 -1.6094,1.0703 -1.0078,0 -1.5,-0.875 -0.4102,-0.7304 -0.4102,-1.9609 0,-0.9531 0.2461,-1.6367 0.461,-1.2735 1.668,-1.2735 1.0859,0 1.5703,0.8946 z M 4.9258,6.0273 Q 5.25,5.543 5.25,4.2227 5.25,3.2695 5.0156,2.6543 4.7812,2.0391 4.1055,2.0391 q -0.6211,0 -0.9082,0.5839 -0.2871,0.584 -0.2871,1.7208 0,0.8554 0.1836,1.375 0.2812,0.7929 0.9609,0.7929 0.5469,0 0.8711,-0.4844 z"
       style="fill:#ffffff;stroke:none" />
  </g>
  <g
     id="g5679"
     style="font-size:8px;font-family:Helvetica;color-interpolation:linearRGB;fill:#4d4d4d;stroke:#4d4d4d;color-rendering:optimizeQuality;image-rendering:optimizeQuality;text-rendering:geometricPrecision"
     transform="translate(212.8775,248.77961)">
    <path
       inkscape:connector-curvature="0"
       id="path5681"
       d="m -4.3555,5.0195 0,-2.5351 -1.7929,2.5351 z M -4.3438,7 l 0,-1.3672 -2.4531,0 0,-0.6875 2.5625,-3.5547 0.5938,0 0,3.6289 0.8242,0 0,0.6133 -0.8242,0 0,1.3672 z M 1.1836,2.3008 q 0.375,0.6914 0.375,1.8945 0,1.1406 -0.3398,1.8867 -0.4922,1.0703 -1.6094,1.0703 -1.0078,0 -1.5,-0.875 -0.4102,-0.7304 -0.4102,-1.9609 0,-0.9531 0.2461,-1.6367 0.4609,-1.2735 1.668,-1.2735 1.0859,0 1.5703,0.8946 z M 0.4766,6.0273 Q 0.8008,5.543 0.8008,4.2227 0.8008,3.2695 0.5664,2.6543 0.332,2.0391 -0.3438,2.0391 q -0.621,0 -0.9082,0.5839 -0.2871,0.584 -0.2871,1.7208 0,0.8554 0.1836,1.375 0.2813,0.7929 0.961,0.7929 0.5468,0 0.8711,-0.4844 z M 5.6328,2.3008 q 0.375,0.6914 0.375,1.8945 0,1.1406 -0.3398,1.8867 -0.4922,1.0703 -1.6094,1.0703 -1.0078,0 -1.5,-0.875 -0.4102,-0.7304 -0.4102,-1.9609 0,-0.9531 0.2461,-1.6367 0.461,-1.2735 1.668,-1.2735 1.0859,0 1.5703,0.8946 z M 4.9258,6.0273 Q 5.25,5.543 5.25,4.2227 5.25,3.2695 5.0156,2.6543 4.7812,2.0391 4.1055,2.0391 q -0.6211,0 -0.9082,0.5839 -0.2871,0.584 -0.2871,1.7208 0,0.8554 0.1836,1.375 0.2812,0.7929 0.9609,0.7929 0.5469,0 0.8711,-0.4844 z"
       style="fill:#ffffff;stroke:none" />
  </g>
  <g
     id="g5683"
     style="font-size:8px;font-family:Helvetica;color-interpolation:linearRGB;fill:#4d4d4d;stroke:#4d4d4d;color-rendering:optimizeQuality;image-rendering:optimizeQuality;text-rendering:geometricPrecision"
     transform="translate(258.0775,248.77961)">
    <path
       inkscape:connector-curvature="0"
       id="path5685"
       d="m -6.0117,5.5742 q 0.0703,0.6016 0.5586,0.832 0.25,0.1172 0.5781,0.1172 0.625,0 0.9258,-0.3984 0.3008,-0.3984 0.3008,-0.8828 0,-0.586 -0.3575,-0.9063 -0.3574,-0.3203 -0.8574,-0.3203 -0.3633,0 -0.623,0.1406 -0.2598,0.1407 -0.4434,0.3907 L -6.5391,4.5117 -6.1133,1.5 l 2.9063,0 0,0.6797 -2.3789,0 -0.2383,1.5547 q 0.1953,-0.1485 0.3711,-0.2227 0.3125,-0.1289 0.7226,-0.1289 0.7696,0 1.3047,0.4961 0.5352,0.4961 0.5352,1.2578 0,0.793 -0.4903,1.3985 -0.4902,0.6054 -1.5644,0.6054 -0.6836,0 -1.209,-0.3847 Q -6.6797,6.3711 -6.7422,5.5742 Z M 1.1836,2.3008 q 0.375,0.6914 0.375,1.8945 0,1.1406 -0.3398,1.8867 -0.4922,1.0703 -1.6094,1.0703 -1.0078,0 -1.5,-0.875 -0.4102,-0.7304 -0.4102,-1.9609 0,-0.9531 0.2461,-1.6367 0.4609,-1.2735 1.668,-1.2735 1.0859,0 1.5703,0.8946 z M 0.4766,6.0273 Q 0.8008,5.543 0.8008,4.2227 0.8008,3.2695 0.5664,2.6543 0.332,2.0391 -0.3438,2.0391 q -0.621,0 -0.9082,0.5839 -0.2871,0.584 -0.2871,1.7208 0,0.8554 0.1836,1.375 0.2813,0.7929 0.961,0.7929 0.5468,0 0.8711,-0.4844 z M 5.6328,2.3008 q 0.375,0.6914 0.375,1.8945 0,1.1406 -0.3398,1.8867 -0.4922,1.0703 -1.6094,1.0703 -1.0078,0 -1.5,-0.875 -0.4102,-0.7304 -0.4102,-1.9609 0,-0.9531 0.2461,-1.6367 0.461,-1.2735 1.668,-1.2735 1.0859,0 1.5703,0.8946 z M 4.9258,6.0273 Q 5.25,5.543 5.25,4.2227 5.25,3.2695 5.0156,2.6543 4.7812,2.0391 4.1055,2.0391 q -0.6211,0 -0.9082,0.5839 -0.2871,0.584 -0.2871,1.7208 0,0.8554 0.1836,1.375 0.2812,0.7929 0.9609,0.7929 0.5469,0 0.8711,-0.4844 z"
       style="fill:#ffffff;stroke:none" />
  </g>
  <line
     y2="20.179611"
     style="color-interpolation:linearRGB;fill:#ffffff;stroke:#ffffff;stroke-width:0.69999999;stroke-linejoin:round;color-rendering:optimizeQuality;image-rendering:optimizeQuality;text-rendering:geometricPrecision"
     x1="32.077499"
     x2="32.077499"
     y1="245.17961"
     id="line5689" />
  <line
     y2="245.17961"
     style="color-interpolation:linearRGB;fill:#ffffff;stroke:#ffffff;stroke-width:0.69999999;stroke-linejoin:round;color-rendering:optimizeQuality;image-rendering:optimizeQuality;text-rendering:geometricPrecision"
     x1="32.077499"
     x2="36.597504"
     y1="245.17961"
     id="line5691" />
  <line
     y2="132.67961"
     style="color-interpolation:linearRGB;fill:#ffffff;stroke:#ffffff;stroke-width:0.69999999;stroke-linejoin:round;color-rendering:optimizeQuality;image-rendering:optimizeQuality;text-rendering:geometricPrecision"
     x1="32.077499"
     x2="36.597504"
     y1="132.67961"
     id="line5701" />
  <line
     y2="20.179611"
     style="color-interpolation:linearRGB;fill:#ffffff;stroke:#ffffff;stroke-width:0.69999999;stroke-linejoin:round;color-rendering:optimizeQuality;image-rendering:optimizeQuality;text-rendering:geometricPrecision"
     x1="32.077499"
     x2="36.597504"
     y1="20.179611"
     id="line5711" />
  <g
     id="g5713"
     style="font-size:8px;font-family:Helvetica;color-interpolation:linearRGB;fill:#4d4d4d;stroke:#4d4d4d;color-rendering:optimizeQuality;image-rendering:optimizeQuality;text-rendering:geometricPrecision"
     transform="translate(28.4775,245.17961)">
    <path
       inkscape:connector-curvature="0"
       id="path5715"
       d="m -1.2656,-2.1992 q 0.375,0.6914 0.375,1.8945 0,1.1406 -0.3399,1.8867 -0.4922,1.0703 -1.6093,1.0703 -1.0079,0 -1.5,-0.875 Q -4.75,1.0469 -4.75,-0.1836 q 0,-0.9531 0.2461,-1.6367 0.4609,-1.2735 1.668,-1.2735 1.0859,0 1.5703,0.8946 z m -0.7071,3.7265 q 0.3243,-0.4843 0.3243,-1.8046 0,-0.9532 -0.2344,-1.5684 -0.2344,-0.6152 -0.9102,-0.6152 -0.6211,0 -0.9082,0.5839 -0.2871,0.584 -0.2871,1.7208 0,0.8554 0.1836,1.375 0.2813,0.7929 0.9609,0.7929 0.5469,0 0.8711,-0.4844 z"
       style="fill:#ffffff;stroke:none" />
  </g>
  <g
     id="g5717"
     style="font-size:8px;font-family:Helvetica;color-interpolation:linearRGB;fill:#4d4d4d;stroke:#4d4d4d;color-rendering:optimizeQuality;image-rendering:optimizeQuality;text-rendering:geometricPrecision"
     transform="translate(28.4775,222.67961)" />
  <g
     id="g5733"
     style="font-size:8px;font-family:Helvetica;color-interpolation:linearRGB;fill:#4d4d4d;stroke:#4d4d4d;color-rendering:optimizeQuality;image-rendering:optimizeQuality;text-rendering:geometricPrecision"
     transform="translate(28.4775,132.67961)">
    <path
       inkscape:connector-curvature="0"
       id="path5735"
       d="m -12.2656,-2.1992 q 0.375,0.6914 0.375,1.8945 0,1.1406 -0.3399,1.8867 -0.4922,1.0703 -1.6093,1.0703 -1.0079,0 -1.5,-0.875 -0.4102,-0.7304 -0.4102,-1.9609 0,-0.9531 0.2461,-1.6367 0.4609,-1.2735 1.668,-1.2735 1.0859,0 1.5703,0.8946 z m -0.7071,3.7265 q 0.3243,-0.4843 0.3243,-1.8046 0,-0.9532 -0.2344,-1.5684 -0.2344,-0.6152 -0.9102,-0.6152 -0.6211,0 -0.9082,0.5839 -0.2871,0.584 -0.2871,1.7208 0,0.8554 0.1836,1.375 0.2813,0.7929 0.9609,0.7929 0.5469,0 0.8711,-0.4844 z m 2.1055,0.1211 0.8164,0 0,0.8516 -0.8164,0 z m 5.2734,-3.8476 q 0.375,0.6914 0.375,1.8945 0,1.1406 -0.3398,1.8867 -0.4922,1.0703 -1.6094,1.0703 -1.0078,0 -1.5,-0.875 -0.4101,-0.7304 -0.4101,-1.9609 0,-0.9531 0.2461,-1.6367 0.4609,-1.2735 1.6679,-1.2735 1.086,0 1.5703,0.8946 z m -0.707,3.7265 q 0.3242,-0.4843 0.3242,-1.8046 0,-0.9532 -0.2343,-1.5684 -0.2344,-0.6152 -0.9102,-0.6152 -0.6211,0 -0.9082,0.5839 -0.2871,0.584 -0.2871,1.7208 0,0.8554 0.1836,1.375 0.2812,0.7929 0.9609,0.7929 0.5469,0 0.8711,-0.4844 z m 2.4102,-0.4531 q 0.0703,0.6016 0.5586,0.832 0.25,0.1172 0.5781,0.1172 0.625,0 0.9258,-0.3984 0.3008,-0.3984 0.3008,-0.8828 0,-0.586 -0.3575,-0.9063 -0.3574,-0.3203 -0.8574,-0.3203 -0.3633,0 -0.623,0.1406 -0.2598,0.1407 -0.4434,0.3907 L -4.418,0.0117 -3.9922,-3 l 2.9063,0 0,0.6797 -2.3789,0 -0.2383,1.5547 q 0.1953,-0.1485 0.3711,-0.2227 0.3125,-0.1289 0.7226,-0.1289 0.7696,0 1.3047,0.4961 0.5352,0.4961 0.5352,1.2578 0,0.793 -0.4903,1.3985 -0.4902,0.6054 -1.5644,0.6054 -0.6836,0 -1.209,-0.3847 -0.5254,-0.3848 -0.5879,-1.1817 z"
       style="fill:#ffffff;stroke:none" />
  </g>
  <g
     id="g5753"
     style="font-size:8px;font-family:Helvetica;color-interpolation:linearRGB;fill:#4d4d4d;stroke:#4d4d4d;color-rendering:optimizeQuality;image-rendering:optimizeQuality;text-rendering:geometricPrecision"
     transform="translate(28.4775,20.179611)">
    <path
       inkscape:connector-curvature="0"
       id="path5755"
       d="m -8.2656,-2.1992 q 0.375,0.6914 0.375,1.8945 0,1.1406 -0.3399,1.8867 -0.4922,1.0703 -1.6093,1.0703 -1.0079,0 -1.5,-0.875 -0.4102,-0.7304 -0.4102,-1.9609 0,-0.9531 0.2461,-1.6367 0.4609,-1.2735 1.668,-1.2735 1.0859,0 1.5703,0.8946 z m -0.7071,3.7265 q 0.3243,-0.4843 0.3243,-1.8046 0,-0.9532 -0.2344,-1.5684 -0.2344,-0.6152 -0.9102,-0.6152 -0.6211,0 -0.9082,0.5839 -0.2871,0.584 -0.2871,1.7208 0,0.8554 0.1836,1.375 0.2813,0.7929 0.9609,0.7929 0.5469,0 0.8711,-0.4844 z m 2.1055,0.1211 0.8164,0 0,0.8516 -0.8164,0 z m 2.3047,-3.1093 0,-0.5391 q 0.7617,-0.0742 1.0625,-0.248 0.3008,-0.1739 0.4492,-0.8223 l 0.5547,0 0,5.5703 -0.75,0 0,-3.9609 z"
       style="fill:#ffffff;stroke:none" />
  </g>
  <g
     id="g5757"
     style="font-size:9px;font-family:Helvetica;color-interpolation:linearRGB;fill:#4d4d4d;stroke:#4d4d4d;color-rendering:optimizeQuality;image-rendering:optimizeQuality;text-rendering:geometricPrecision"
     transform="matrix(0,-1,1,0,9.4775,132.67951)">
    <path
       inkscape:connector-curvature="0"
       id="path5759"
       d="m -20.731,-9.4556 2.9048,0 q 0.8614,0 1.3887,0.4856 0.5273,0.4856 0.5273,1.3645 0,0.7559 -0.4702,1.3162 -0.4702,0.5603 -1.4458,0.5603 l -2.0302,0 0,2.729 -0.8746,0 z m 3.4102,0.8877 q -0.29,-0.1362 -0.7954,-0.1362 l -1.7402,0 0,2.2368 1.7402,0 q 0.5889,0 0.9558,-0.2505 0.3669,-0.2505 0.3669,-0.8833 0,-0.7119 -0.5273,-0.9668 z m 2.4258,0.8614 0.7514,0 0,0.8129 q 0.0923,-0.2373 0.4527,-0.5778 0.3603,-0.3406 0.8305,-0.3406 0.022,0 0.0748,0.0044 0.0527,0.0044 0.1801,0.0176 l 0,0.8349 q -0.0703,-0.0132 -0.1296,-0.0176 -0.0593,-0.0044 -0.1296,-0.0044 -0.5977,0 -0.9185,0.3846 -0.3208,0.3845 -0.3208,0.8855 l 0,2.707 -0.791,0 z m 5.9216,3.6013 q 0.2922,-0.5955 0.2922,-1.325 0,-0.6592 -0.2109,-1.0722 -0.334,-0.6504 -1.1514,-0.6504 -0.7251,0 -1.0546,0.5537 -0.3296,0.5537 -0.3296,1.3359 0,0.7515 0.3296,1.2525 0.3295,0.5009 1.0459,0.5009 0.7866,0 1.0788,-0.5954 z m 0.49,-3.1311 q 0.6284,0.6064 0.6284,1.7842 0,1.1381 -0.5537,1.8808 -0.5537,0.7427 -1.7183,0.7427 -0.9711,0 -1.5424,-0.657 -0.5713,-0.657 -0.5713,-1.7644 0,-1.1865 0.602,-1.8896 0.6021,-0.7032 1.6172,-0.7032 0.9097,0 1.5381,0.6065 z m 1.5073,-2.2412 0.7691,0 0,2.3422 q 0.2592,-0.3383 0.6196,-0.5163 0.3603,-0.178 0.7822,-0.178 0.8789,0 1.426,0.6043 0.5472,0.6042 0.5472,1.7819 0,1.1163 -0.5406,1.8545 -0.5405,0.7383 -1.4985,0.7383 -0.5361,0 -0.9053,-0.2593 -0.2197,-0.1538 -0.4702,-0.4922 l 0,0.6021 -0.7295,0 z m 3.0169,5.4184 q 0.3186,-0.5097 0.3186,-1.3447 0,-0.7427 -0.3186,-1.2305 -0.3186,-0.4878 -0.9383,-0.4878 -0.5405,0 -0.947,0.3999 -0.4065,0.3999 -0.4065,1.3184 0,0.6636 0.167,1.0767 0.312,0.7778 1.1646,0.7778 0.6416,0 0.9602,-0.5098 z m 2.907,0.3472 q 0.2504,0.1977 0.5932,0.1977 0.4175,0 0.8086,-0.1933 0.6592,-0.3208 0.6592,-1.0503 l 0,-0.6372 q -0.145,0.0923 -0.3735,0.1538 -0.2286,0.0615 -0.4483,0.0879 l -0.479,0.0615 q -0.4307,0.0571 -0.646,0.1802 -0.3647,0.2065 -0.3647,0.6592 0,0.3427 0.2505,0.5405 z m 1.6655,-2.1402 q 0.2724,-0.0351 0.3647,-0.2285 0.0528,-0.1054 0.0528,-0.3032 0,-0.4043 -0.2879,-0.5867 -0.2878,-0.1823 -0.824,-0.1823 -0.6196,0 -0.8789,0.334 -0.145,0.1845 -0.1889,0.5493 l -0.7383,0 q 0.022,-0.8701 0.5647,-1.2107 0.5427,-0.3406 1.259,-0.3406 0.8306,0 1.3491,0.3164 0.5142,0.3164 0.5142,0.9844 l 0,2.7114 q 0,0.1231 0.0505,0.1978 0.0506,0.0747 0.2132,0.0747 0.0527,0 0.1186,-0.0066 0.0659,-0.0066 0.1407,-0.0198 l 0,0.5845 q -0.1846,0.0527 -0.2813,0.0659 -0.0967,0.0132 -0.2637,0.0132 -0.4087,0 -0.5932,-0.2901 -0.0967,-0.1538 -0.1363,-0.435 -0.2417,0.3164 -0.6943,0.5493 -0.4526,0.2329 -0.9976,0.2329 -0.6547,0 -1.07,-0.3977 -0.4153,-0.3977 -0.4153,-0.9954 0,-0.6547 0.4087,-1.0151 0.4087,-0.3604 1.0723,-0.4438 z m 2.4214,-3.6254 0.769,0 0,2.3422 q 0.2593,-0.3383 0.6196,-0.5163 0.3604,-0.178 0.7823,-0.178 0.8789,0 1.426,0.6043 0.5471,0.6042 0.5471,1.7819 0,1.1163 -0.5405,1.8545 -0.5405,0.7383 -1.4986,0.7383 -0.5361,0 -0.9052,-0.2593 -0.2198,-0.1538 -0.4702,-0.4922 l 0,0.6021 -0.7295,0 z m 3.0168,5.4184 q 0.3186,-0.5097 0.3186,-1.3447 0,-0.7427 -0.3186,-1.2305 -0.3186,-0.4878 -0.9382,-0.4878 -0.5405,0 -0.947,0.3999 -0.4065,0.3999 -0.4065,1.3184 0,0.6636 0.167,1.0767 0.312,0.7778 1.1645,0.7778 0.6416,0 0.9602,-0.5098 z m 2.0501,-3.6255 0.8042,0 0,4.6846 -0.8042,0 z m 0,-1.771 0.8042,0 0,0.8965 -0.8042,0 z m 2.0214,0 0.7911,0 0,6.4556 -0.7911,0 z m 1.9776,1.771 0.8042,0 0,4.6846 -0.8042,0 z m 0,-1.771 0.8042,0 0,0.8965 -0.8042,0 z m 2.1577,0.4351 0.7998,0 0,1.314 0.7515,0 0,0.646 -0.7515,0 0,3.0717 q 0,0.2461 0.167,0.3296 0.0923,0.0484 0.3076,0.0484 0.0571,0 0.1231,-0.0022 0.0659,-0.0022 0.1538,-0.011 l 0,0.624 q -0.1363,0.0396 -0.2835,0.0571 -0.1472,0.0176 -0.3186,0.0176 -0.5537,0 -0.7514,-0.2834 -0.1978,-0.2835 -0.1978,-0.7361 l 0,-3.1157 -0.6372,0 0,-0.646 0.6372,0 z m 5.2822,1.314 0.8745,0 q -0.167,0.4526 -0.7426,2.0654 -0.4307,1.2129 -0.7207,1.9775 -0.6856,1.8018 -0.9668,2.1973 -0.2813,0.3955 -0.9668,0.3955 -0.167,0 -0.2571,-0.0132 -0.0901,-0.0132 -0.2219,-0.0483 l 0,-0.7207 q 0.2065,0.0571 0.2988,0.0703 0.0923,0.0132 0.1626,0.0132 0.2197,0 0.323,-0.0725 0.1033,-0.0726 0.1736,-0.178 0.0219,-0.0352 0.1582,-0.3604 0.1362,-0.3252 0.1977,-0.4834 l -1.7402,-4.8427 0.8965,0 1.2612,3.832 z"
       style="fill:#ffffff;stroke:none" />
  </g>
  <g
     id="g5761"
     style="font-weight:bold;font-size:9px;font-family:Helvetica;color-interpolation:linearRGB;fill:#ffffff;color-rendering:optimizeQuality;image-rendering:optimizeQuality;text-rendering:geometricPrecision"
     transform="translate(135.73062,17.979611)">
    <text
       xml:space="preserve"
       style="font-style:normal;font-weight:normal;font-size:16.25px;line-height:125%;font-family:sans-serif;letter-spacing:0px;word-spacing:0px;fill:#000000;fill-opacity:1;stroke:none;stroke-width:1px;stroke-linecap:butt;stroke-linejoin:miter;stroke-opacity:1"
       x="-89.835251"
       y="-8.4825411"
       id="text10077"
       sodipodi:linespacing="125%"><tspan
         sodipodi:role="line"
         id="tspan10079"
         x="-89.835251"
         y="-8.4825411"
         style="font-size:12.5px;fill:#ffffff">Reaction Time Distribution (ms)</tspan></text>
  </g>
  <path
     d="m 32.0775,245.17961 0,-3.7841 2.26,0 0,3.4814 2.26,0 0,-0.6055 2.26,0 0,0.4541 2.26,0 0,-0.1513 2.26,0 0,0.6054 2.26,0 0,-0.6054 2.26,0 0,-0.3028 2.26,0 0,0 2.26,0 0,0.1514 2.26,0 0,0.1514 2.26,0 0,0.1513 2.26,0 0,-0.7568 2.26,0 0,0.4541 2.26,0 0,0.4541 2.26,0 0,0.1513 2.26,0 0,-0.3027 2.26,0 0,0.3027 2.26,0 0,0 2.26,0 0,0 2.26,0 0,-0.3027 2.26,0 0,-0.1513 2.26,0 0,-3.33 2.26,0 0,-6.9627 2.26,0 0,-9.0817"
     style="color-interpolation:linearRGB;fill:none;fill-opacity:0.9020004;fill-rule:evenodd;stroke:#66c2a5;stroke-width:3;stroke-linecap:butt;stroke-linejoin:round;stroke-opacity:0.9020004;color-rendering:optimizeQuality;image-rendering:optimizeQuality;text-rendering:geometricPrecision"
     id="path5767"
     inkscape:connector-curvature="0" />
  <path
     d="m 86.3175,234.28151 0,-9.0817 2.26,0 0,-24.0666 2.26,0 0,-31.7861 2.26,0 0,-40.111 2.26,0 0,-37.083799 2.26,0 0,-34.8133 2.26,0 0,-18.6175 2.26,0 0,3.4813 2.26,0 0,15.7417 2.26,0 0,34.2078 2.26,0 0,16.498499 2.26,0 0,22.8558 2.26,0 0,8.779 2.26,0 0,20.5852 2.26,0 0,8.1736 2.26,0 0,11.9576 2.26,0 0,11.5035 2.26,0 0,5.7518 2.26,0 0,4.5409 2.26,0 0,10.7467 2.26,0 0,10.2926 2.26,0 0,2.1191 2.26,0 0,3.6327 2.26,0 0,3.1786 2.26,0 0,3.1786 2.26,0 0,3.1786"
     style="color-interpolation:linearRGB;fill:none;fill-opacity:0.9020004;fill-rule:evenodd;stroke:#66c2a5;stroke-width:3;stroke-linecap:butt;stroke-linejoin:round;stroke-opacity:0.9020004;color-rendering:optimizeQuality;image-rendering:optimizeQuality;text-rendering:geometricPrecision"
     id="path5769"
     inkscape:connector-curvature="0" />
  <path
     d="m 142.8175,235.94651 0,3.1786 2.26,0 0,0.1514 2.26,0 0,0.7568 2.26,0 0,1.0595 2.26,0 0,1.665 2.26,0 0,0.3027 2.26,0 0,0.4541 2.26,0 0,-0.9082 2.26,0 0,1.2109 2.26,0 0,0.1514 2.26,0 0,0.3027 2.26,0 0,-0.1513 2.26,0 0,0.4541 2.26,0 0,0 2.26,0 0,0 2.26,0 0,0.3027 2.26,0 0,-0.3027 2.26,0 0,0.3027 2.26,0 0,0.1513 2.26,0 0,-0.1513 2.26,0 0,0.3027 2.26,0 0,0 2.26,0 0,-0.3027 2.26,0 0,0 2.26,0 0,0 2.26,0 0,0.1513"
     style="color-interpolation:linearRGB;fill:none;fill-opacity:0.9020004;fill-rule:evenodd;stroke:#66c2a5;stroke-width:3;stroke-linecap:butt;stroke-linejoin:round;stroke-opacity:0.9020004;color-rendering:optimizeQuality;image-rendering:optimizeQuality;text-rendering:geometricPrecision"
     id="path5771"
     inkscape:connector-curvature="0" />
  <path
     d="m 199.3175,244.87691 0,0.1513 2.26,0 0,0 2.26,0 0,0 2.26,0 0,0.1514 2.26,0 0,-0.1514 2.26,0 0,0 2.26,0 0,0.1514 2.26,0 0,0 2.26,0 0,-0.1514 2.26,0 0,0.1514 2.26,0 0,0 2.26,0 0,0 2.26,0 0,-0.1514 2.26,0 0,0.1514 2.26,0 0,-0.1514 2.26,0 0,0 2.26,0 0,-0.1513 2.26,0 0,0.3027 2.26,0 0,0 2.26,0 0,-0.1514 2.26,0 0,0.1514 2.26,0 0,0 2.26,0 0,0 2.26,0 0,0 2.26,0 0,-0.1514 2.26,0 0,0.1514"
     style="color-interpolation:linearRGB;fill:none;fill-opacity:0.9020004;fill-rule:evenodd;stroke:#66c2a5;stroke-width:3;stroke-linecap:butt;stroke-linejoin:round;stroke-opacity:0.9020004;color-rendering:optimizeQuality;image-rendering:optimizeQuality;text-rendering:geometricPrecision"
     id="path5773"
     inkscape:connector-curvature="0" />
  <path
     d="m 255.8175,245.02821 0,0.1514 2.26,0 0,0 0,0 0,0 0,0 0,0 0,0 0,-0.1514 0,0 0,-0.1513 0,0 0,0.3027 0,0 0,0 0,0 0,0 0,0 0,0 0,0 0,0 0,0 0,0 0,0 0,0 0,0 0,0 0,0 0,0 0,0 0,-0.1514 0,0 0,0.1514 0,0 0,0 0,0 0,0 0,0 0,0 0,0 0,0 0,0 0,0 0,0 0,0 0,0 0,0 0,0 0,-0.1514 0,0 0,0.1514"
     style="color-interpolation:linearRGB;fill:none;fill-opacity:0.9020004;fill-rule:evenodd;stroke:#66c2a5;stroke-width:3;stroke-linecap:butt;stroke-linejoin:round;stroke-opacity:0.9020004;color-rendering:optimizeQuality;image-rendering:optimizeQuality;text-rendering:geometricPrecision"
     id="path5775"
     inkscape:connector-curvature="0" />
  <path
     d="m 258.0775,245.02821 0,0.1514 0,0 0,0 0,0 0,0 0,0 0,0 0,0 0,0 0,0 0,0 0,0 0,0 0,0 0,0 0,0 0,0 0,0 0,0 0,0 0,0 0,0 0,0 0,0 0,0 0,0 0,-0.3027 0,0 0,0.3027 0,0 0,0 0,0 0,0 0,0 0,0 0,0 0,-0.1514 0,0 0,0.1514 0,0 0,0 0,0 0,0 0,0 0,0 0,0 0,0 0,0 0,0 0,0 0,-0.1514"
     style="color-interpolation:linearRGB;fill:none;fill-opacity:0.9020004;fill-rule:evenodd;stroke:#66c2a5;stroke-width:3;stroke-linecap:butt;stroke-linejoin:round;stroke-opacity:0.9020004;color-rendering:optimizeQuality;image-rendering:optimizeQuality;text-rendering:geometricPrecision"
     id="path5777"
     inkscape:connector-curvature="0" />
  <path
     d="m 258.0775,245.17961 0,-0.1514 0,0 0,0.1514 0,0 0,0 0,0 0,0 0,0 0,0 0,0 0,0 0,0 0,0 0,0 0,0 0,0 0,0 0,0 0,0 0,0 0,0 0,0 0,0 0,0 0,0 0,0 0,0 0,0 0,0 0,0 0,0 0,0 0,0 0,0 0,0 0,0 0,0 0,0 0,0 0,0 0,0 0,0 0,0 0,0 0,0 0,0 0,0 0,0 0,0 0,0 0,0"
     style="color-interpolation:linearRGB;fill:none;fill-opacity:0.9020004;fill-rule:evenodd;stroke:#66c2a5;stroke-width:3;stroke-linecap:butt;stroke-linejoin:round;stroke-opacity:0.9020004;color-rendering:optimizeQuality;image-rendering:optimizeQuality;text-rendering:geometricPrecision"
     id="path5779"
     inkscape:connector-curvature="0" />
  <path
     d="m 258.0775,245.17961 0,0 0,0 0,0 0,0 0,0 0,0 0,0 0,0 0,0 0,0 0,0 0,0 0,0 0,0 0,-0.1514 0,0 0,0.1514 0,0 0,-0.1514 0,0 0,0.1514 0,0 0,-0.1514 0,0 0,0.1514 0,0 0,0 0,0 0,0 0,0 0,0 0,0 0,0 0,0 0,0 0,0 0,0 0,0 0,0 0,0 0,0 0,0 0,0 0,0 0,0 0,0 0,0 0,0 0,0 0,0 0,0"
     style="color-interpolation:linearRGB;fill:none;fill-opacity:0.9020004;fill-rule:evenodd;stroke:#66c2a5;stroke-width:3;stroke-linecap:butt;stroke-linejoin:round;stroke-opacity:0.9020004;color-rendering:optimizeQuality;image-rendering:optimizeQuality;text-rendering:geometricPrecision"
     id="path5781"
     inkscape:connector-curvature="0" />
  <path
     d="m 258.0775,245.17961 0,0 0,0 0,0 0,0 0,0 0,0 0,0 0,0 0,0 0,0 0,0 0,0 0,0 0,0 0,0 0,0 0,-0.1514 0,0 0,0.1514 0,0 0,0 0,0 0,0 0,0 0,0 0,0 0,0 0,0 0,0 0,0 0,0 0,0 0,0 0,0 0,0 0,0 0,0 0,0 0,0 0,0 0,0 0,0 0,0 0,0 0,0 0,0 0,0 0,0 0,0 0,0 0,0"
     style="color-interpolation:linearRGB;fill:none;fill-opacity:0.9020004;fill-rule:evenodd;stroke:#66c2a5;stroke-width:3;stroke-linecap:butt;stroke-linejoin:round;stroke-opacity:0.9020004;color-rendering:optimizeQuality;image-rendering:optimizeQuality;text-rendering:geometricPrecision"
     id="path5783"
     inkscape:connector-curvature="0" />
  <path
     d="m 258.0775,245.17961 0,0 0,0 0,0 0,0 0,0 0,0 0,0 0,0 0,0 0,0 0,0 0,0 0,0 0,0 0,0 0,0 0,0 0,0 0,0 0,0 0,0 0,0 0,0 0,0 0,0 0,0 0,0 0,0 0,0 0,0 0,0 0,0 0,0 0,0 0,0 0,0 0,0 0,0 0,0 0,0 0,0 0,0 0,0 0,0 0,0 0,0 0,0 0,0 0,0 0,0 0,0"
     style="color-interpolation:linearRGB;fill:none;fill-opacity:0.9020004;fill-rule:evenodd;stroke:#66c2a5;stroke-width:3;stroke-linecap:butt;stroke-linejoin:round;stroke-opacity:0.9020004;color-rendering:optimizeQuality;image-rendering:optimizeQuality;text-rendering:geometricPrecision"
     id="path5785"
     inkscape:connector-curvature="0" />
  <path
     d="m 258.0775,245.17961 0,0 0,0 0,0 0,0 0,0 0,0 0,0 0,0 0,0 0,0 0,0 0,0 0,0 0,0 0,0 0,0 0,0 0,0 0,0 0,0 0,-0.1514 0,0 0,0.1514"
     style="color-interpolation:linearRGB;fill:none;fill-opacity:0.9020004;fill-rule:evenodd;stroke:#66c2a5;stroke-width:3;stroke-linecap:butt;stroke-linejoin:round;stroke-opacity:0.9020004;color-rendering:optimizeQuality;image-rendering:optimizeQuality;text-rendering:geometricPrecision"
     id="path5787"
     inkscape:connector-curvature="0" />
  <line
     x1="110.149"
     x2="110.149"
     y1="245.17961"
     style="color-interpolation:linearRGB;fill:none;fill-opacity:1;stroke:#66c2a5;stroke-width:1;stroke-linecap:butt;stroke-linejoin:round;stroke-opacity:1;color-rendering:optimizeQuality;image-rendering:optimizeQuality;text-rendering:geometricPrecision"
     y2="20.179611"
     id="line5789" />
  <path
     d="m 32.0775,245.17961 0,-8.1124 1.356,0 0,7.7843 1.356,0 0,-0.0894 1.356,0 0,-0.1194 1.356,0 0,0.1194 1.356,0 0,-0.2983 1.356,0 0,0.2983 1.356,0 0,0.0596 1.356,0 0,-0.0895 1.356,0 0,-0.1193 1.356,0 0,0.2685 1.356,0 0,-0.0895 1.356,0 0,-0.0895 1.356,0 0,-0.1193 1.356,0 0,0.2684 1.356,0 0,-0.2684 1.356,0 0,0.0895 1.356,0 0,-0.2386 1.356,0 0,-0.2684 1.356,0 0,0.2385 1.356,0 0,0.179 1.356,0 0,0.3579 1.356,0 0,-0.0298 1.356,0 0,0.1789 1.356,0 0,0.0298"
     style="color-interpolation:linearRGB;fill:none;fill-opacity:0.9020004;fill-rule:evenodd;stroke:#7570b3;stroke-width:3;stroke-linecap:butt;stroke-linejoin:round;stroke-opacity:0.9020004;color-rendering:optimizeQuality;image-rendering:optimizeQuality;text-rendering:geometricPrecision"
     id="path5791"
     inkscape:connector-curvature="0" />
  <path
     d="m 64.6215,245.09011 0,0.0298 1.356,0 0,0.0597 1.356,0 0,0 1.356,0 0,-0.0597 1.356,0 0,-0.0298 1.356,0 0,0 1.356,0 0,0.0597 1.356,0 0,-0.0895 1.356,0 0,-0.0895 1.356,0 0,-0.1789 1.356,0 0,-0.507 1.356,0 0,0.0298 1.356,0 0,-0.5369 1.356,0 0,-0.0894 1.356,0 0,0.0894 1.356,0 0,-0.4474 1.356,0 0,-0.0894 1.356,0 0,0.8052 1.356,0 0,-0.9842 1.356,0 0,-1.0438 1.356,0 0,-0.4772 1.356,0 0,-1.5808 1.356,0 0,-3.1912 1.356,0 0,-2.1773 1.356,0 0,-2.9228 1.356,0 0,-6.3826"
     style="color-interpolation:linearRGB;fill:none;fill-opacity:0.9020004;fill-rule:evenodd;stroke:#7570b3;stroke-width:3;stroke-linecap:butt;stroke-linejoin:round;stroke-opacity:0.9020004;color-rendering:optimizeQuality;image-rendering:optimizeQuality;text-rendering:geometricPrecision"
     id="path5793"
     inkscape:connector-curvature="0" />
  <path
     d="m 98.5215,231.66891 0,-6.3826 1.356,0 0,-7.158 1.356,0 0,-5.4282 1.356,0 0,-11.4229 1.356,0 0,-8.53 1.356,0 0,-11.2739 1.356,0 0,-10.3791 1.356,0 0,-10.051 1.356,0 0,-8.3808 1.356,0 0,-3.8475 1.356,0 0,-4.4439 1.356,0 0,-3.1018 1.356,0 0,2.9825 1.356,0 0,1.5807 1.356,0 0,-3.6684 1.356,0 0,3.4597 1.356,0 0,1.3123 1.356,0 0,3.8772 1.356,0 0,7.0387 1.356,0 0,3.7878 1.356,0 0,5.7562 1.356,0 0,8.2317 1.356,0 0,5.7264 1.356,0 0,7.7546 1.356,0 0,6.1737 1.356,0 0,6.2335"
     style="color-interpolation:linearRGB;fill:none;fill-opacity:0.9020004;fill-rule:evenodd;stroke:#7570b3;stroke-width:3;stroke-linecap:butt;stroke-linejoin:round;stroke-opacity:0.9020004;color-rendering:optimizeQuality;image-rendering:optimizeQuality;text-rendering:geometricPrecision"
     id="path5795"
     inkscape:connector-curvature="0" />
  <path
     d="m 132.4215,195.28231 0,6.2335 1.356,0 0,4.1755 1.356,0 0,6.6808 1.356,0 0,5.0106 1.356,0 0,4.4141 1.356,0 0,4.9211 1.356,0 0,2.0579 1.356,0 0,3.0124 1.356,0 0,1.9088 1.356,0 0,2.0281 1.356,0 0,1.7298 1.356,0 0,1.4913 1.356,0 0,0.4175 1.356,0 0,1.4614 1.356,0 0,0.4772 1.356,0 0,0.5965 1.356,0 0,0.6264 1.356,0 0,-0.1193 1.356,0 0,1.0438 1.356,0 0,-0.2385 1.356,0 0,0.3578 1.356,0 0,0.1194 1.356,0 0,0.0298 1.356,0 0,0.0298 1.356,0 0,0.4474 1.356,0 0,0.2684"
     style="color-interpolation:linearRGB;fill:none;fill-opacity:0.9020004;fill-rule:evenodd;stroke:#7570b3;stroke-width:3;stroke-linecap:butt;stroke-linejoin:round;stroke-opacity:0.9020004;color-rendering:optimizeQuality;image-rendering:optimizeQuality;text-rendering:geometricPrecision"
     id="path5797"
     inkscape:connector-curvature="0" />
  <path
     d="m 166.3215,244.19541 0,0.2684 1.356,0 0,-0.0895 1.356,0 0,0.0597 1.356,0 0,0.0298 1.356,0 0,-0.0597 1.356,0 0,0.2386 1.356,0 0,0.0597 1.356,0 0,-0.1491 1.356,0 0,0.0596 1.356,0 0,0.2983 1.356,0 0,0.0596 1.356,0 0,-0.2386 1.356,0 0,0.0895 1.356,0 0,0.0895 1.356,0 0,0.0596 1.356,0 0,0.0298 1.356,0 0,-0.1192 1.356,0 0,0.0894 1.356,0 0,-0.0894 1.356,0 0,0.2087 1.356,0 0,-0.0596 1.356,0 0,0.0298 1.356,0 0,-0.0298 1.356,0 0,0.0596 1.356,0 0,-0.0895 1.356,0 0,-0.1192"
     style="color-interpolation:linearRGB;fill:none;fill-opacity:0.9020004;fill-rule:evenodd;stroke:#7570b3;stroke-width:3;stroke-linecap:butt;stroke-linejoin:round;stroke-opacity:0.9020004;color-rendering:optimizeQuality;image-rendering:optimizeQuality;text-rendering:geometricPrecision"
     id="path5799"
     inkscape:connector-curvature="0" />
  <path
     d="m 200.2215,245.00061 0,-0.1192 1.356,0 0,0.1192 1.356,0 0,0 1.356,0 0,0.0299 1.356,0 0,0.0596 1.356,0 0,0 1.356,0 0,0.0298 1.356,0 0,-0.0596 1.356,0 0,0.0298 1.356,0 0,-0.0298 1.356,0 0,0.0596 1.356,0 0,-0.1193 1.356,0 0,0.1193 1.356,0 0,0.0299 1.356,0 0,-0.0299 1.356,0 0,-0.0298 1.356,0 0,-0.0596 1.356,0 0,0.0894 1.356,0 0,0.0597 1.356,0 0,-0.0597 1.356,0 0,0 1.356,0 0,0.0299 1.356,0 0,-0.0299 1.356,0 0,-0.0298 1.356,0 0,0.0895 1.356,0 0,-0.0597"
     style="color-interpolation:linearRGB;fill:none;fill-opacity:0.9020004;fill-rule:evenodd;stroke:#7570b3;stroke-width:3;stroke-linecap:butt;stroke-linejoin:round;stroke-opacity:0.9020004;color-rendering:optimizeQuality;image-rendering:optimizeQuality;text-rendering:geometricPrecision"
     id="path5801"
     inkscape:connector-curvature="0" />
  <path
     d="m 234.1215,245.17961 0,-0.0597 1.356,0 0,0.0597 1.356,0 0,-0.0298 1.356,0 0,0 1.356,0 0,0 1.356,0 0,-0.0597 1.356,0 0,0.0597 1.356,0 0,0.0298 1.356,0 0,0 1.356,0 0,-0.0597 1.356,0 0,0.0597 1.356,0 0,-0.0298 1.356,0 0,0 1.356,0 0,-0.0299 1.356,0 0,0.0299 1.356,0 0,0 1.356,0 0,-0.0597 1.356,0 0,0.0895 0.904,0 0,-0.0298 0,0 0,0.0298 0,0 0,0 0,0 0,0 0,0 0,0 0,0 0,0 0,0 0,-0.0298 0,0 0,0.0298"
     style="color-interpolation:linearRGB;fill:none;fill-opacity:0.9020004;fill-rule:evenodd;stroke:#7570b3;stroke-width:3;stroke-linecap:butt;stroke-linejoin:round;stroke-opacity:0.9020004;color-rendering:optimizeQuality;image-rendering:optimizeQuality;text-rendering:geometricPrecision"
     id="path5803"
     inkscape:connector-curvature="0" />
  <path
     d="m 258.0775,245.14981 0,0.0298 0,0 0,0 0,0 0,-0.0298 0,0 0,0.0298 0,0 0,-0.0597 0,0 0,0.0299 0,0 0,0.0298 0,0 0,0 0,0 0,0 0,0 0,-0.0298 0,0 0,0.0298 0,0 0,-0.0298 0,0 0,0 0,0 0,0.0298 0,0 0,0 0,0 0,0 0,0 0,0 0,0 0,0 0,0 0,0 0,0 0,-0.0298 0,0 0,0.0298 0,0 0,0 0,0 0,-0.0298 0,0 0,0.0298 0,0 0,0 0,0 0,-0.0895"
     style="color-interpolation:linearRGB;fill:none;fill-opacity:0.9020004;fill-rule:evenodd;stroke:#7570b3;stroke-width:3;stroke-linecap:butt;stroke-linejoin:round;stroke-opacity:0.9020004;color-rendering:optimizeQuality;image-rendering:optimizeQuality;text-rendering:geometricPrecision"
     id="path5805"
     inkscape:connector-curvature="0" />
  <path
     d="m 258.0775,245.17961 0,-0.0895 0,0 0,0.0895 0,0 0,0 0,0 0,0 0,0 0,0 0,0 0,0 0,0 0,-0.0298 0,0 0,0.0298 0,0 0,0 0,0 0,-0.0298 0,0 0,0.0298 0,0 0,0 0,0 0,0 0,0 0,0 0,0 0,0 0,0 0,-0.0298 0,0 0,0.0298 0,0 0,0 0,0 0,0 0,0 0,-0.0298 0,0 0,-0.0299 0,0 0,0.0299 0,0 0,0 0,0 0,0.0298 0,0 0,0 0,0 0,0"
     style="color-interpolation:linearRGB;fill:none;fill-opacity:0.9020004;fill-rule:evenodd;stroke:#7570b3;stroke-width:3;stroke-linecap:butt;stroke-linejoin:round;stroke-opacity:0.9020004;color-rendering:optimizeQuality;image-rendering:optimizeQuality;text-rendering:geometricPrecision"
     id="path5807"
     inkscape:connector-curvature="0" />
  <path
     d="m 258.0775,245.17961 0,0 0,0 0,0 0,0 0,0 0,0 0,0 0,0 0,0 0,0 0,0 0,0 0,0 0,0 0,0 0,0 0,0 0,0 0,0 0,0 0,0 0,0 0,0 0,0 0,0 0,0 0,0 0,0 0,-0.0298 0,0 0,0.0298 0,0 0,0 0,0 0,0 0,0 0,0 0,0 0,-0.0298 0,0 0,0.0298 0,0 0,0 0,0 0,0 0,0 0,0 0,0 0,0 0,0 0,0"
     style="color-interpolation:linearRGB;fill:none;fill-opacity:0.9020004;fill-rule:evenodd;stroke:#7570b3;stroke-width:3;stroke-linecap:butt;stroke-linejoin:round;stroke-opacity:0.9020004;color-rendering:optimizeQuality;image-rendering:optimizeQuality;text-rendering:geometricPrecision"
     id="path5809"
     inkscape:connector-curvature="0" />
  <path
     d="m 258.0775,245.17961 0,0 0,0 0,0 0,0 0,-0.0298 0,0 0,0 0,0 0,0.0298 0,0 0,-0.0298 0,0 0,0.0298 0,0 0,-0.0298 0,0 0,0.0298 0,0 0,0 0,0 0,0 0,0 0,0 0,0 0,0 0,0 0,0 0,0 0,0 0,0 0,0 0,0 0,0 0,0 0,0 0,0 0,0 0,0 0,0 0,0 0,0 0,0 0,-0.0298 0,0 0,0.0298 0,0 0,0 0,0 0,0 0,0 0,0"
     style="color-interpolation:linearRGB;fill:none;fill-opacity:0.9020004;fill-rule:evenodd;stroke:#7570b3;stroke-width:3;stroke-linecap:butt;stroke-linejoin:round;stroke-opacity:0.9020004;color-rendering:optimizeQuality;image-rendering:optimizeQuality;text-rendering:geometricPrecision"
     id="path5811"
     inkscape:connector-curvature="0" />
  <path
     d="m 258.0775,245.17961 0,0 0,0 0,0 0,0 0,0 0,0 0,0 0,0 0,0 0,0 0,0 0,0 0,0 0,0 0,0 0,0 0,0 0,0 0,0 0,0 0,0 0,0 0,0 0,0 0,0 0,0 0,0 0,0 0,-0.0298 0,0 0,0.0298 0,0 0,0 0,0 0,0 0,0 0,-0.0298 0,0 0,0.0298 0,0 0,0 0,0 0,0 0,0 0,0 0,0 0,0 0,0 0,0 0,0 0,0"
     style="color-interpolation:linearRGB;fill:none;fill-opacity:0.9020004;fill-rule:evenodd;stroke:#7570b3;stroke-width:3;stroke-linecap:butt;stroke-linejoin:round;stroke-opacity:0.9020004;color-rendering:optimizeQuality;image-rendering:optimizeQuality;text-rendering:geometricPrecision"
     id="path5813"
     inkscape:connector-curvature="0" />
  <path
     d="m 258.0775,245.17961 0,0 0,0 0,0 0,0 0,0 0,0 0,-0.0298 0,0 0,0.0298 0,0 0,0 0,0 0,0 0,0 0,0 0,0 0,0 0,0 0,0 0,0 0,-0.0298 0,0 0,0.0298 0,0 0,0 0,0 0,0 0,0 0,0 0,0 0,0 0,0 0,0 0,0 0,0 0,0 0,0 0,0 0,0 0,0 0,0 0,0 0,0 0,0 0,0 0,0 0,0 0,0 0,0 0,0 0,0"
     style="color-interpolation:linearRGB;fill:none;fill-opacity:0.9020004;fill-rule:evenodd;stroke:#7570b3;stroke-width:3;stroke-linecap:butt;stroke-linejoin:round;stroke-opacity:0.9020004;color-rendering:optimizeQuality;image-rendering:optimizeQuality;text-rendering:geometricPrecision"
     id="path5815"
     inkscape:connector-curvature="0" />
  <path
     d="m 258.0775,245.17961 0,0 0,0 0,0 0,0 0,-0.0298 0,0 0,0.0298 0,0 0,0 0,0 0,0 0,0 0,0 0,0 0,0 0,0 0,0 0,0 0,0 0,0 0,0 0,0 0,0 0,0 0,0 0,0 0,0 0,0 0,0 0,0 0,0 0,0 0,0 0,0 0,0 0,0 0,0 0,0 0,0 0,0 0,0 0,0 0,0 0,0 0,-0.0298 0,0 0,0.0298 0,0 0,0 0,0 0,0"
     style="color-interpolation:linearRGB;fill:none;fill-opacity:0.9020004;fill-rule:evenodd;stroke:#7570b3;stroke-width:3;stroke-linecap:butt;stroke-linejoin:round;stroke-opacity:0.9020004;color-rendering:optimizeQuality;image-rendering:optimizeQuality;text-rendering:geometricPrecision"
     id="path5817"
     inkscape:connector-curvature="0" />
  <path
     d="m 258.0775,245.17961 0,0 0,0 0,0 0,0 0,0 0,0 0,0 0,0 0,0 0,0 0,0 0,0 0,0 0,0 0,0 0,0 0,0 0,0 0,0 0,0 0,0 0,0 0,0 0,0 0,0 0,0 0,0 0,0 0,0 0,0 0,-0.0298 0,0 0,0.0298 0,0 0,0 0,0 0,0 0,0 0,0 0,0 0,0 0,0 0,0 0,0 0,0 0,0 0,0 0,0 0,0 0,0 0,0"
     style="color-interpolation:linearRGB;fill:none;fill-opacity:0.9020004;fill-rule:evenodd;stroke:#7570b3;stroke-width:3;stroke-linecap:butt;stroke-linejoin:round;stroke-opacity:0.9020004;color-rendering:optimizeQuality;image-rendering:optimizeQuality;text-rendering:geometricPrecision"
     id="path5819"
     inkscape:connector-curvature="0" />
  <path
     d="m 258.0775,245.17961 0,0 0,0 0,0 0,0 0,0 0,0 0,0 0,0 0,0 0,0 0,-0.0298 0,0 0,0.0298 0,0 0,0 0,0 0,0 0,0 0,0 0,0 0,0 0,0 0,0 0,0 0,0 0,0 0,0 0,0 0,0 0,0 0,0 0,0 0,0 0,0 0,0 0,0 0,-0.0298 0,0 0,0.0298 0,0 0,0 0,0 0,0 0,0 0,0 0,0 0,0 0,0 0,0 0,0 0,0"
     style="color-interpolation:linearRGB;fill:none;fill-opacity:0.9020004;fill-rule:evenodd;stroke:#7570b3;stroke-width:3;stroke-linecap:butt;stroke-linejoin:round;stroke-opacity:0.9020004;color-rendering:optimizeQuality;image-rendering:optimizeQuality;text-rendering:geometricPrecision"
     id="path5821"
     inkscape:connector-curvature="0" />
  <path
     d="m 258.0775,245.17961 0,0 0,0 0,0 0,0 0,-0.0298 0,0 0,0.0298 0,0 0,0 0,0 0,0 0,0 0,0 0,0 0,0 0,0 0,-0.0298 0,0 0,0.0298"
     style="color-interpolation:linearRGB;fill:none;fill-opacity:0.9020004;fill-rule:evenodd;stroke:#7570b3;stroke-width:3;stroke-linecap:butt;stroke-linejoin:round;stroke-opacity:0.9020004;color-rendering:optimizeQuality;image-rendering:optimizeQuality;text-rendering:geometricPrecision"
     id="path5825"
     inkscape:connector-curvature="0" />
  <g
     id="g5827"
     style="color-interpolation:linearRGB;fill:#7570b3;stroke:#7570b3;stroke-linecap:butt;stroke-linejoin:round;color-rendering:optimizeQuality;image-rendering:optimizeQuality;text-rendering:geometricPrecision"
     transform="translate(-154.9225,-105.82039)">
    <line
       id="line5829"
       y1="351"
       x2="270.66589"
       x1="270.66589"
       style="fill:none"
       y2="126" />
  </g>
  <g
     id="g5835"
     style="color-interpolation:linearRGB;fill:#66c2a5;fill-opacity:0.90196078;stroke:#66c2a5;stroke-width:3;stroke-linecap:round;stroke-linejoin:round;stroke-opacity:0.99215686;color-rendering:optimizeQuality;image-rendering:optimizeQuality;text-rendering:geometricPrecision"
     transform="translate(-154.9225,-109.82039)" />
  <g
     id="g6113"
     style="font-weight:bold;font-size:9px;font-family:Helvetica;color-interpolation:linearRGB;fill:#ffffff;color-rendering:optimizeQuality;image-rendering:optimizeQuality;text-rendering:geometricPrecision"
     transform="translate(666.5784,17.979611)" />
  <g
     inkscape:groupmode="layer"
     id="layer1"
     inkscape:label="Ref Line"
     style="display:inline"
     transform="translate(-154.9225,-105.82039)" />
  <g
     id="g5831"
     style="font-size:7px;font-family:Helvetica;color-interpolation:linearRGB;fill:#ffffff;color-rendering:optimizeQuality;image-rendering:optimizeQuality;text-rendering:geometricPrecision"
     transform="translate(207.0775,32.033311)">
    <path
       inkscape:connector-curvature="0"
       id="path5833"
       d="m 0.5161,-3.021 0.9741,0 1.4424,4.2451 1.4321,-4.2451 0.9639,0 0,5.021 -0.646,0 0,-2.9634 q 0,-0.1538 0.0069,-0.5093 0.0068,-0.3554 0.0068,-0.7622 L 3.2642,2 2.5908,2 1.1484,-2.2349 l 0,0.1538 q 0,0.1846 0.0086,0.5623 0.0085,0.3777 0.0085,0.5554 L 1.1655,2 0.5161,2 Z M 8.574,1.1404 q 0.2273,-0.4632 0.2273,-1.0305 0,-0.5127 -0.1641,-0.834 Q 8.3774,-1.23 7.7417,-1.23 q -0.564,0 -0.8203,0.4307 -0.2564,0.4306 -0.2564,1.039 0,0.5845 0.2564,0.9742 0.2563,0.3896 0.8135,0.3896 0.6118,0 0.8391,-0.4631 z m 0.3811,-2.4353 q 0.4887,0.4717 0.4887,1.3877 0,0.8852 -0.4306,1.4629 -0.4307,0.5776 -1.3364,0.5776 -0.7554,0 -1.1997,-0.511 Q 6.0327,1.1113 6.0327,0.25 q 0,-0.9229 0.4683,-1.4697 0.4682,-0.5469 1.2578,-0.5469 0.7075,0 1.1963,0.4717 z m 1.2202,-0.3657 0.5845,0 0,0.5195 q 0.2597,-0.3213 0.5503,-0.4614 0.2905,-0.1402 0.646,-0.1402 0.7793,0 1.0527,0.5435 0.1504,0.2973 0.1504,0.8511 l 0,2.3481 -0.6255,0 0,-2.3071 q 0,-0.335 -0.0991,-0.5401 -0.1641,-0.3418 -0.5948,-0.3418 -0.2187,0 -0.3588,0.0445 -0.253,0.0752 -0.4444,0.3007 -0.1538,0.1812 -0.1999,0.3743 -0.0462,0.1931 -0.0462,0.552 l 0,1.9175 -0.6152,0 z m 3.8794,-1.3604 0.5913,0 0,2.9155 1.5791,-1.5551 0.7861,0 L 15.6099,-0.29 17.0898,2 16.3037,2 15.1621,0.1543 14.646,0.626 14.646,2 14.0547,2 Z m 5.7934,1.4612 q 0.3658,0.1828 0.5572,0.4734 0.1845,0.2768 0.2461,0.646 0.0547,0.2529 0.0547,0.8066 l -2.6832,0 q 0.0171,0.5571 0.2632,0.8938 0.2461,0.3367 0.7622,0.3367 0.482,0 0.7691,-0.3179 0.164,-0.1846 0.2324,-0.4272 l 0.605,0 q -0.0239,0.2016 -0.159,0.4494 -0.135,0.2478 -0.3024,0.4051 -0.2803,0.2734 -0.6939,0.3691 -0.2222,0.0547 -0.5024,0.0547 -0.6836,0 -1.1587,-0.4973 -0.4751,-0.4973 -0.4751,-1.3929 0,-0.8818 0.4785,-1.4321 0.4785,-0.5503 1.251,-0.5503 0.3896,0 0.7553,0.1829 z m 0.2256,1.4372 q -0.0376,-0.3999 -0.1743,-0.6391 -0.2529,-0.4444 -0.8442,-0.4444 -0.4239,0 -0.711,0.306 -0.2871,0.3059 -0.3042,0.7775 z m 3.6743,-1.538 0.6802,0 q -0.1299,0.352 -0.5776,1.6064 -0.335,0.9434 -0.5606,1.5381 -0.5332,1.4014 -0.7519,1.709 -0.2188,0.3076 -0.752,0.3076 -0.1299,0 -0.1999,-0.0103 Q 21.5161,3.48 21.4136,3.4526 l 0,-0.5605 q 0.1606,0.0444 0.2324,0.0547 0.0718,0.0102 0.1265,0.0102 0.1709,0 0.2512,-0.0564 0.0803,-0.0564 0.135,-0.1384 0.0171,-0.0273 0.123,-0.2803 0.106,-0.2529 0.1538,-0.3759 l -1.3535,-3.7666 0.6973,0 0.981,2.9804 z m 6.836,-0.9947 q 0.5264,0.5025 0.5845,1.1416 l -0.6631,0 q -0.1128,-0.4853 -0.4495,-0.769 -0.3367,-0.2837 -0.9451,-0.2837 -0.7417,0 -1.198,0.5212 -0.4563,0.5213 -0.4563,1.5979 0,0.8819 0.4119,1.4305 0.4119,0.5485 1.2288,0.5485 0.7519,0 1.145,-0.5776 0.2085,-0.3042 0.311,-0.7998 l 0.6631,0 q -0.0889,0.793 -0.5879,1.3296 -0.5981,0.646 -1.6133,0.646 -0.875,0 -1.4697,-0.5298 -0.7827,-0.7007 -0.7827,-2.1636 0,-1.1108 0.5879,-1.8218 0.6357,-0.7724 1.7534,-0.7724 0.9536,0 1.48,0.5024 z m 5.0552,0 q 0.5263,0.5025 0.5844,1.1416 l -0.6631,0 q -0.1127,-0.4853 -0.4494,-0.769 -0.3367,-0.2837 -0.9451,-0.2837 -0.7417,0 -1.198,0.5212 -0.4563,0.5213 -0.4563,1.5979 0,0.8819 0.4119,1.4305 0.4118,0.5485 1.2287,0.5485 0.752,0 1.1451,-0.5776 0.2085,-0.3042 0.311,-0.7998 l 0.6631,0 q -0.0889,0.793 -0.5879,1.3296 -0.5982,0.646 -1.6133,0.646 -0.875,0 -1.4697,-0.5298 -0.7827,-0.7007 -0.7827,-2.1636 0,-1.1108 0.5879,-1.8218 0.6357,-0.7724 1.7534,-0.7724 0.9536,0 1.48,0.5024 z"
       style="fill:#ffffff;stroke:none" />
  </g>
  <g
     id="g5839"
     style="font-size:7px;font-family:Helvetica;color-interpolation:linearRGB;fill:#ffffff;color-rendering:optimizeQuality;image-rendering:optimizeQuality;text-rendering:geometricPrecision"
     transform="translate(207.0775,44.325911)">
    <path
       inkscape:connector-curvature="0"
       id="path5841"
       d="m 0.5161,-3.021 0.9741,0 1.4424,4.2451 1.4321,-4.2451 0.9639,0 0,5.021 -0.646,0 0,-2.9634 q 0,-0.1538 0.0069,-0.5093 0.0068,-0.3554 0.0068,-0.7622 L 3.2642,2 2.5908,2 1.1484,-2.2349 l 0,0.1538 q 0,0.1846 0.0086,0.5623 0.0085,0.3777 0.0085,0.5554 L 1.1655,2 0.5161,2 Z M 8.574,1.1404 q 0.2273,-0.4632 0.2273,-1.0305 0,-0.5127 -0.1641,-0.834 Q 8.3774,-1.23 7.7417,-1.23 q -0.564,0 -0.8203,0.4307 -0.2564,0.4306 -0.2564,1.039 0,0.5845 0.2564,0.9742 0.2563,0.3896 0.8135,0.3896 0.6118,0 0.8391,-0.4631 z m 0.3811,-2.4353 q 0.4887,0.4717 0.4887,1.3877 0,0.8852 -0.4306,1.4629 -0.4307,0.5776 -1.3364,0.5776 -0.7554,0 -1.1997,-0.511 Q 6.0327,1.1113 6.0327,0.25 q 0,-0.9229 0.4683,-1.4697 0.4682,-0.5469 1.2578,-0.5469 0.7075,0 1.1963,0.4717 z m 1.2202,-0.3657 0.5845,0 0,0.5195 q 0.2597,-0.3213 0.5503,-0.4614 0.2905,-0.1402 0.646,-0.1402 0.7793,0 1.0527,0.5435 0.1504,0.2973 0.1504,0.8511 l 0,2.3481 -0.6255,0 0,-2.3071 q 0,-0.335 -0.0991,-0.5401 -0.1641,-0.3418 -0.5948,-0.3418 -0.2187,0 -0.3588,0.0445 -0.253,0.0752 -0.4444,0.3007 -0.1538,0.1812 -0.1999,0.3743 -0.0462,0.1931 -0.0462,0.552 l 0,1.9175 -0.6152,0 z m 3.8794,-1.3604 0.5913,0 0,2.9155 1.5791,-1.5551 0.7861,0 L 15.6099,-0.29 17.0898,2 16.3037,2 15.1621,0.1543 14.646,0.626 14.646,2 14.0547,2 Z m 5.7934,1.4612 q 0.3658,0.1828 0.5572,0.4734 0.1845,0.2768 0.2461,0.646 0.0547,0.2529 0.0547,0.8066 l -2.6832,0 q 0.0171,0.5571 0.2632,0.8938 0.2461,0.3367 0.7622,0.3367 0.482,0 0.7691,-0.3179 0.164,-0.1846 0.2324,-0.4272 l 0.605,0 q -0.0239,0.2016 -0.159,0.4494 -0.135,0.2478 -0.3024,0.4051 -0.2803,0.2734 -0.6939,0.3691 -0.2222,0.0547 -0.5024,0.0547 -0.6836,0 -1.1587,-0.4973 -0.4751,-0.4973 -0.4751,-1.3929 0,-0.8818 0.4785,-1.4321 0.4785,-0.5503 1.251,-0.5503 0.3896,0 0.7553,0.1829 z m 0.2256,1.4372 q -0.0376,-0.3999 -0.1743,-0.6391 -0.2529,-0.4444 -0.8442,-0.4444 -0.4239,0 -0.711,0.306 -0.2871,0.3059 -0.3042,0.7775 z m 3.6743,-1.538 0.6802,0 q -0.1299,0.352 -0.5776,1.6064 -0.335,0.9434 -0.5606,1.5381 -0.5332,1.4014 -0.7519,1.709 -0.2188,0.3076 -0.752,0.3076 -0.1299,0 -0.1999,-0.0103 Q 21.5161,3.48 21.4136,3.4526 l 0,-0.5605 q 0.1606,0.0444 0.2324,0.0547 0.0718,0.0102 0.1265,0.0102 0.1709,0 0.2512,-0.0564 0.0803,-0.0564 0.135,-0.1384 0.0171,-0.0273 0.123,-0.2803 0.106,-0.2529 0.1538,-0.3759 l -1.3535,-3.7666 0.6973,0 0.981,2.9804 z m 3.3941,-1.3604 0.687,0 0,5.021 -0.687,0 z m 2.2353,3.4009 q 0.024,0.4272 0.2017,0.6938 0.3384,0.4991 1.1929,0.4991 0.3828,0 0.6972,-0.1094 0.6084,-0.2119 0.6084,-0.7588 0,-0.4102 -0.2563,-0.5845 -0.2598,-0.1709 -0.8135,-0.2973 l -0.6802,-0.1539 q -0.6665,-0.1503 -0.9433,-0.3315 -0.4785,-0.3145 -0.4785,-0.9399 0,-0.6768 0.4682,-1.1109 0.4683,-0.4341 1.3262,-0.4341 0.7895,0 1.3415,0.3811 0.5521,0.3811 0.5521,1.2185 l -0.6392,0 q -0.0513,-0.4033 -0.2188,-0.6186 -0.311,-0.3931 -1.0561,-0.3931 -0.6016,0 -0.8648,0.253 -0.2631,0.2529 -0.2631,0.5878 0,0.3692 0.3076,0.5401 0.2016,0.1094 0.9126,0.2734 l 0.7041,0.1607 q 0.5093,0.1162 0.7861,0.3178 0.4785,0.3521 0.4785,1.022 0,0.834 -0.6067,1.1929 -0.6067,0.3589 -1.4099,0.3589 -0.9365,0 -1.4663,-0.4785 Q 28.728,1.1934 28.7383,0.3799 Z m 6.8018,-0.4375 -0.7622,-2.2183 -0.8101,2.2183 z m -1.1177,-2.9634 0.7691,0 1.8217,5.021 -0.7451,0 -0.5093,-1.5039 -1.9858,0 L 33.8687,2 33.1714,2 Z"
       style="fill:#ffffff;stroke:none" />
  </g>
  <g
     id="g5843"
     style="color-interpolation:linearRGB;fill:#7570b3;fill-opacity:0.9020004;stroke:#7570b3;stroke-width:3;stroke-linecap:round;stroke-linejoin:round;stroke-opacity:0.9020004;color-rendering:optimizeQuality;image-rendering:optimizeQuality;text-rendering:geometricPrecision"
     transform="translate(-154.9225,-105.82039)">
    <path
       inkscape:connector-curvature="0"
       id="path5845"
       style="fill:#7470b4;fill-opacity:0.90196078;fill-rule:evenodd;stroke:#7470b3;stroke-linecap:round;stroke-linejoin:round;stroke-opacity:0.99215686"
       d="m 329,153.0244 0,-5.7561 30,0 0,5.7561 -30,0" />
  </g>
  <path
     style="fill:#7470b4;fill-opacity:0.90196078;stroke:#7470b4;stroke-width:0.14619289;stroke-linecap:round;stroke-linejoin:round;stroke-miterlimit:10;stroke-dasharray:none;stroke-dashoffset:0;stroke-opacity:0.90196078"
     d="m 175.7273,44.317481 0,-1.37056 13.43147,0 13.43147,0 0,1.37056 0,1.37055 -13.43147,0 -13.43147,0 0,-1.37055 z"
     id="path7845"
     inkscape:connector-curvature="0" />
  <g
     id="g11756"
     transform="translate(-154.9225,-105.82039)">
    <path
       d="m 329,144.7317 0,-5.7561 30,0 0,5.7561 -30,0"
       style="font-style:normal;font-weight:normal;font-size:12px;font-family:Dialog;color-interpolation:linearRGB;fill:#66c2a5;fill-opacity:1;fill-rule:evenodd;stroke:#66c2a5;stroke-width:3;stroke-linecap:round;stroke-linejoin:round;stroke-miterlimit:10;stroke-dasharray:none;stroke-dashoffset:0;stroke-opacity:0.99215686;color-rendering:optimizeQuality;image-rendering:optimizeQuality;shape-rendering:auto;text-rendering:geometricPrecision"
       id="path5837"
       transform="translate(0,-4)"
       inkscape:connector-curvature="0" />
    <g
       id="g11711"
       style="font-size:7px;font-family:Helvetica;color-interpolation:linearRGB;fill:#ffffff;color-rendering:optimizeQuality;image-rendering:optimizeQuality;text-rendering:geometricPrecision"
       transform="translate(362,137.8537)">
      <path
         inkscape:connector-curvature="0"
         id="path11713"
         d="m 0.5161,-3.021 0.9741,0 1.4424,4.2451 1.4321,-4.2451 0.9639,0 0,5.021 -0.646,0 0,-2.9634 q 0,-0.1538 0.0069,-0.5093 0.0068,-0.3554 0.0068,-0.7622 L 3.2642,2 2.5908,2 1.1484,-2.2349 l 0,0.1538 q 0,0.1846 0.0086,0.5623 0.0085,0.3777 0.0085,0.5554 L 1.1655,2 0.5161,2 Z M 8.574,1.1404 q 0.2273,-0.4632 0.2273,-1.0305 0,-0.5127 -0.1641,-0.834 Q 8.3774,-1.23 7.7417,-1.23 q -0.564,0 -0.8203,0.4307 -0.2564,0.4306 -0.2564,1.039 0,0.5845 0.2564,0.9742 0.2563,0.3896 0.8135,0.3896 0.6118,0 0.8391,-0.4631 z m 0.3811,-2.4353 q 0.4887,0.4717 0.4887,1.3877 0,0.8852 -0.4306,1.4629 -0.4307,0.5776 -1.3364,0.5776 -0.7554,0 -1.1997,-0.511 Q 6.0327,1.1113 6.0327,0.25 q 0,-0.9229 0.4683,-1.4697 0.4682,-0.5469 1.2578,-0.5469 0.7075,0 1.1963,0.4717 z m 1.2202,-0.3657 0.5845,0 0,0.5195 q 0.2597,-0.3213 0.5503,-0.4614 0.2905,-0.1402 0.646,-0.1402 0.7793,0 1.0527,0.5435 0.1504,0.2973 0.1504,0.8511 l 0,2.3481 -0.6255,0 0,-2.3071 q 0,-0.335 -0.0991,-0.5401 -0.1641,-0.3418 -0.5948,-0.3418 -0.2187,0 -0.3588,0.0445 -0.253,0.0752 -0.4444,0.3007 -0.1538,0.1812 -0.1999,0.3743 -0.0462,0.1931 -0.0462,0.552 l 0,1.9175 -0.6152,0 z m 3.8794,-1.3604 0.5913,0 0,2.9155 1.5791,-1.5551 0.7861,0 L 15.6099,-0.29 17.0898,2 16.3037,2 15.1621,0.1543 14.646,0.626 14.646,2 14.0547,2 Z m 5.7934,1.4612 q 0.3658,0.1828 0.5572,0.4734 0.1845,0.2768 0.2461,0.646 0.0547,0.2529 0.0547,0.8066 l -2.6832,0 q 0.0171,0.5571 0.2632,0.8938 0.2461,0.3367 0.7622,0.3367 0.482,0 0.7691,-0.3179 0.164,-0.1846 0.2324,-0.4272 l 0.605,0 q -0.0239,0.2016 -0.159,0.4494 -0.135,0.2478 -0.3024,0.4051 -0.2803,0.2734 -0.6939,0.3691 -0.2222,0.0547 -0.5024,0.0547 -0.6836,0 -1.1587,-0.4973 -0.4751,-0.4973 -0.4751,-1.3929 0,-0.8818 0.4785,-1.4321 0.4785,-0.5503 1.251,-0.5503 0.3896,0 0.7553,0.1829 z m 0.2256,1.4372 q -0.0376,-0.3999 -0.1743,-0.6391 -0.2529,-0.4444 -0.8442,-0.4444 -0.4239,0 -0.711,0.306 -0.2871,0.3059 -0.3042,0.7775 z m 3.6743,-1.538 0.6802,0 q -0.1299,0.352 -0.5776,1.6064 -0.335,0.9434 -0.5606,1.5381 -0.5332,1.4014 -0.7519,1.709 -0.2188,0.3076 -0.752,0.3076 -0.1299,0 -0.1999,-0.0103 Q 21.5161,3.48 21.4136,3.4526 l 0,-0.5605 q 0.1606,0.0444 0.2324,0.0547 0.0718,0.0102 0.1265,0.0102 0.1709,0 0.2512,-0.0564 0.0803,-0.0564 0.135,-0.1384 0.0171,-0.0273 0.123,-0.2803 0.106,-0.2529 0.1538,-0.3759 l -1.3535,-3.7666 0.6973,0 0.981,2.9804 z m 6.836,-0.9947 q 0.5264,0.5025 0.5845,1.1416 l -0.6631,0 q -0.1128,-0.4853 -0.4495,-0.769 -0.3367,-0.2837 -0.9451,-0.2837 -0.7417,0 -1.198,0.5212 -0.4563,0.5213 -0.4563,1.5979 0,0.8819 0.4119,1.4305 0.4119,0.5485 1.2288,0.5485 0.7519,0 1.145,-0.5776 0.2085,-0.3042 0.311,-0.7998 l 0.6631,0 q -0.0889,0.793 -0.5879,1.3296 -0.5981,0.646 -1.6133,0.646 -0.875,0 -1.4697,-0.5298 -0.7827,-0.7007 -0.7827,-2.1636 0,-1.1108 0.5879,-1.8218 0.6357,-0.7724 1.7534,-0.7724 0.9536,0 1.48,0.5024 z m 5.0552,0 q 0.5263,0.5025 0.5844,1.1416 l -0.6631,0 q -0.1127,-0.4853 -0.4494,-0.769 -0.3367,-0.2837 -0.9451,-0.2837 -0.7417,0 -1.198,0.5212 -0.4563,0.5213 -0.4563,1.5979 0,0.8819 0.4119,1.4305 0.4118,0.5485 1.2287,0.5485 0.752,0 1.1451,-0.5776 0.2085,-0.3042 0.311,-0.7998 l 0.6631,0 q -0.0889,0.793 -0.5879,1.3296 -0.5982,0.646 -1.6133,0.646 -0.875,0 -1.4697,-0.5298 -0.7827,-0.7007 -0.7827,-2.1636 0,-1.1108 0.5879,-1.8218 0.6357,-0.7724 1.7534,-0.7724 0.9536,0 1.48,0.5024 z"
         style="fill:#ffffff;stroke:none" />
    </g>
    <g
       id="g11715"
       style="font-size:7px;font-family:Helvetica;color-interpolation:linearRGB;fill:#ffffff;color-rendering:optimizeQuality;image-rendering:optimizeQuality;text-rendering:geometricPrecision"
       transform="translate(362,150.1463)">
      <path
         inkscape:connector-curvature="0"
         id="path11717"
         d="m 0.5161,-3.021 0.9741,0 1.4424,4.2451 1.4321,-4.2451 0.9639,0 0,5.021 -0.646,0 0,-2.9634 q 0,-0.1538 0.0069,-0.5093 0.0068,-0.3554 0.0068,-0.7622 L 3.2642,2 2.5908,2 1.1484,-2.2349 l 0,0.1538 q 0,0.1846 0.0086,0.5623 0.0085,0.3777 0.0085,0.5554 L 1.1655,2 0.5161,2 Z M 8.574,1.1404 q 0.2273,-0.4632 0.2273,-1.0305 0,-0.5127 -0.1641,-0.834 Q 8.3774,-1.23 7.7417,-1.23 q -0.564,0 -0.8203,0.4307 -0.2564,0.4306 -0.2564,1.039 0,0.5845 0.2564,0.9742 0.2563,0.3896 0.8135,0.3896 0.6118,0 0.8391,-0.4631 z m 0.3811,-2.4353 q 0.4887,0.4717 0.4887,1.3877 0,0.8852 -0.4306,1.4629 -0.4307,0.5776 -1.3364,0.5776 -0.7554,0 -1.1997,-0.511 Q 6.0327,1.1113 6.0327,0.25 q 0,-0.9229 0.4683,-1.4697 0.4682,-0.5469 1.2578,-0.5469 0.7075,0 1.1963,0.4717 z m 1.2202,-0.3657 0.5845,0 0,0.5195 q 0.2597,-0.3213 0.5503,-0.4614 0.2905,-0.1402 0.646,-0.1402 0.7793,0 1.0527,0.5435 0.1504,0.2973 0.1504,0.8511 l 0,2.3481 -0.6255,0 0,-2.3071 q 0,-0.335 -0.0991,-0.5401 -0.1641,-0.3418 -0.5948,-0.3418 -0.2187,0 -0.3588,0.0445 -0.253,0.0752 -0.4444,0.3007 -0.1538,0.1812 -0.1999,0.3743 -0.0462,0.1931 -0.0462,0.552 l 0,1.9175 -0.6152,0 z m 3.8794,-1.3604 0.5913,0 0,2.9155 1.5791,-1.5551 0.7861,0 L 15.6099,-0.29 17.0898,2 16.3037,2 15.1621,0.1543 14.646,0.626 14.646,2 14.0547,2 Z m 5.7934,1.4612 q 0.3658,0.1828 0.5572,0.4734 0.1845,0.2768 0.2461,0.646 0.0547,0.2529 0.0547,0.8066 l -2.6832,0 q 0.0171,0.5571 0.2632,0.8938 0.2461,0.3367 0.7622,0.3367 0.482,0 0.7691,-0.3179 0.164,-0.1846 0.2324,-0.4272 l 0.605,0 q -0.0239,0.2016 -0.159,0.4494 -0.135,0.2478 -0.3024,0.4051 -0.2803,0.2734 -0.6939,0.3691 -0.2222,0.0547 -0.5024,0.0547 -0.6836,0 -1.1587,-0.4973 -0.4751,-0.4973 -0.4751,-1.3929 0,-0.8818 0.4785,-1.4321 0.4785,-0.5503 1.251,-0.5503 0.3896,0 0.7553,0.1829 z m 0.2256,1.4372 q -0.0376,-0.3999 -0.1743,-0.6391 -0.2529,-0.4444 -0.8442,-0.4444 -0.4239,0 -0.711,0.306 -0.2871,0.3059 -0.3042,0.7775 z m 3.6743,-1.538 0.6802,0 q -0.1299,0.352 -0.5776,1.6064 -0.335,0.9434 -0.5606,1.5381 -0.5332,1.4014 -0.7519,1.709 -0.2188,0.3076 -0.752,0.3076 -0.1299,0 -0.1999,-0.0103 Q 21.5161,3.48 21.4136,3.4526 l 0,-0.5605 q 0.1606,0.0444 0.2324,0.0547 0.0718,0.0102 0.1265,0.0102 0.1709,0 0.2512,-0.0564 0.0803,-0.0564 0.135,-0.1384 0.0171,-0.0273 0.123,-0.2803 0.106,-0.2529 0.1538,-0.3759 l -1.3535,-3.7666 0.6973,0 0.981,2.9804 z m 3.3941,-1.3604 0.687,0 0,5.021 -0.687,0 z m 2.2353,3.4009 q 0.024,0.4272 0.2017,0.6938 0.3384,0.4991 1.1929,0.4991 0.3828,0 0.6972,-0.1094 0.6084,-0.2119 0.6084,-0.7588 0,-0.4102 -0.2563,-0.5845 -0.2598,-0.1709 -0.8135,-0.2973 l -0.6802,-0.1539 q -0.6665,-0.1503 -0.9433,-0.3315 -0.4785,-0.3145 -0.4785,-0.9399 0,-0.6768 0.4682,-1.1109 0.4683,-0.4341 1.3262,-0.4341 0.7895,0 1.3415,0.3811 0.5521,0.3811 0.5521,1.2185 l -0.6392,0 q -0.0513,-0.4033 -0.2188,-0.6186 -0.311,-0.3931 -1.0561,-0.3931 -0.6016,0 -0.8648,0.253 -0.2631,0.2529 -0.2631,0.5878 0,0.3692 0.3076,0.5401 0.2016,0.1094 0.9126,0.2734 l 0.7041,0.1607 q 0.5093,0.1162 0.7861,0.3178 0.4785,0.3521 0.4785,1.022 0,0.834 -0.6067,1.1929 -0.6067,0.3589 -1.4099,0.3589 -0.9365,0 -1.4663,-0.4785 Q 28.728,1.1934 28.7383,0.3799 Z m 6.8018,-0.4375 -0.7622,-2.2183 -0.8101,2.2183 z m -1.1177,-2.9634 0.7691,0 1.8217,5.021 -0.7451,0 -0.5093,-1.5039 -1.9858,0 L 33.8687,2 33.1714,2 Z"
         style="fill:#ffffff;stroke:none" />
    </g>
    <g
       id="g11719"
       style="color-interpolation:linearRGB;fill:#7570b3;fill-opacity:0.9020004;stroke:#7570b3;stroke-width:3;stroke-linecap:round;stroke-linejoin:round;stroke-opacity:0.9020004;color-rendering:optimizeQuality;image-rendering:optimizeQuality;text-rendering:geometricPrecision">
      <path
         inkscape:connector-curvature="0"
         id="path11721"
         style="fill:#7470b4;fill-opacity:0.90196078;fill-rule:evenodd;stroke:#7470b3;stroke-linecap:round;stroke-linejoin:round;stroke-opacity:0.99215686"
         d="m 329,153.0244 0,-5.7561 30,0 0,5.7561 -30,0" />
    </g>
  </g>
</svg>
